<?xml version="1.0" encoding="UTF-8"?>
<svg xmlns="http://www.w3.org/2000/svg" xmlns:xlink="http://www.w3.org/1999/xlink" width="1012.5pt" height="487.499991pt" viewBox="0 0 1012.5 487.499991" version="1.2">
<defs>
<clipPath id="clip1">
  <path d="M 0.269531 262 L 230.921875 262 L 230.921875 480.414062 L 0.269531 480.414062 Z M 0.269531 262 "/>
</clipPath>
<clipPath id="clip2">
  <path d="M 407 0 L 1011.730469 0 L 1011.730469 487 L 407 487 Z M 407 0 "/>
</clipPath>
<clipPath id="clip3">
  <path d="M 1249.660156 20.816406 L 1002.390625 745.90625 L 407.136719 542.910156 L 654.40625 -182.179688 Z M 1249.660156 20.816406 "/>
</clipPath>
</defs>
<g id="surface1">
<g clip-path="url(#clip1)" clip-rule="nonzero">
<path style=" stroke:none;fill-rule:evenodd;fill:rgb(100%,76.858521%,23.919678%);fill-opacity:1;" d="M 87.085938 277.511719 C 86.421875 277.722656 85.835938 277.796875 85.371094 277.777344 C 84 277.71875 82.921875 277.15625 82.105469 276.167969 C 81.476562 275.410156 80.605469 273.8125 81.3125 270.984375 C 81.898438 268.65625 83.210938 267.46875 84.558594 266.839844 C 84.648438 266.796875 84.734375 266.761719 84.820312 266.726562 C 85.554688 265.417969 86.753906 264.167969 88.570312 263.132812 C 92.617188 260.824219 94.914062 262.828125 95.570312 263.703125 C 96.128906 264.4375 96.539062 265.4375 96.417969 266.753906 C 96.375 267.257812 96.144531 268.03125 95.710938 268.929688 C 96.679688 270.46875 96.496094 272.535156 95.15625 273.871094 C 94.542969 274.484375 93.9375 274.972656 93.34375 275.359375 C 92.648438 276.511719 91.320312 277.640625 88.699219 277.769531 C 88.132812 277.796875 87.585938 277.703125 87.085938 277.511719 Z M 81.875 273.960938 C 82.082031 274.105469 82.21875 274.308594 82.359375 274.515625 C 82.125 274.558594 81.890625 274.605469 81.660156 274.652344 C 81.707031 274.441406 81.761719 274.234375 81.875 273.960938 Z M 205.386719 300.039062 C 201.148438 301.933594 197.261719 301.457031 194.441406 297.984375 C 193.085938 296.3125 193.308594 293.875 194.921875 292.476562 C 194.953125 291.828125 195.082031 291.152344 195.304688 290.464844 C 196.292969 287.382812 200 283.464844 203.996094 280.910156 C 204.527344 280.566406 205.0625 280.25 205.597656 279.964844 C 208.570312 276.464844 213.023438 274.292969 218.78125 276.207031 C 219.992188 276.613281 220.765625 277.386719 221.238281 278.390625 C 221.625 279.207031 221.636719 280.847656 221.386719 281.84375 C 220.964844 283.535156 219.492188 286.375 217.304688 289.339844 C 216.390625 290.578125 215.351562 291.84375 214.238281 293.058594 C 213.984375 293.429688 213.726562 293.773438 213.476562 294.082031 C 212.140625 295.757812 210.835938 296.796875 209.648438 297.414062 C 209.089844 298.949219 207.621094 300.046875 205.894531 300.046875 C 205.722656 300.046875 205.554688 300.042969 205.386719 300.039062 Z M 140.710938 287.855469 C 140.828125 287.800781 140.945312 287.746094 141.066406 287.699219 C 142.605469 287.074219 144.113281 286.976562 145.527344 287.371094 C 146.90625 287.753906 148.285156 288.609375 149.4375 290.335938 C 150.703125 292.234375 151.070312 294.824219 150.402344 297.664062 C 149.6875 300.691406 147.777344 304.082031 145.527344 306.59375 C 143.820312 308.5 141.898438 309.886719 140.195312 310.511719 C 138.230469 311.238281 136.390625 311.125 134.828125 310.347656 C 133.441406 309.65625 132.535156 308.644531 132.078125 307.367188 C 131.894531 307.335938 131.714844 307.296875 131.542969 307.246094 C 130.164062 306.871094 129.085938 306.128906 128.304688 305.074219 C 127.625 304.148438 127.140625 302.933594 127.140625 301.308594 C 127.140625 298.4375 128.292969 295.789062 130.167969 293.59375 C 132.625 290.726562 136.347656 288.699219 139.617188 288.03125 C 139.988281 287.957031 140.351562 287.894531 140.710938 287.855469 Z M 209.207031 289.851562 C 209.554688 290.046875 209.769531 290.242188 209.988281 290.4375 C 209.773438 290.5 209.550781 290.640625 209.351562 290.609375 C 209.050781 290.566406 208.769531 290.402344 208.480469 290.289062 C 208.679688 290.144531 208.878906 289.996094 209.207031 289.851562 Z M 146.417969 295.621094 C 146.699219 295.613281 146.917969 295.671875 147.132812 295.726562 C 147.058594 295.84375 146.984375 295.960938 146.910156 296.074219 C 146.722656 295.945312 146.539062 295.816406 146.417969 295.621094 Z M 15.808594 306.160156 C 16.191406 306.378906 16.546875 306.632812 16.875 306.933594 C 19.433594 309.257812 20.625 315.996094 13.910156 320.019531 C 12.421875 320.910156 10.933594 321.804688 9.441406 322.699219 C 6.074219 324.714844 3.769531 324.144531 2.589844 323.453125 C 1.246094 322.667969 0.191406 321.246094 0.117188 319.011719 C 0.0585938 317.335938 0.8125 314.5625 2.0625 311.753906 C 3.730469 308.003906 6.160156 304.160156 7.25 303.070312 C 8.6875 301.636719 9.699219 301.023438 10.214844 300.8125 C 11.109375 300.441406 11.855469 300.429688 12.414062 300.5 C 13.882812 300.679688 14.910156 301.433594 15.558594 302.671875 C 15.886719 303.289062 16.300781 304.5 15.808594 306.160156 Z M 16.035156 308.980469 C 15.972656 308.738281 15.980469 308.558594 15.984375 308.382812 C 16.105469 308.425781 16.222656 308.46875 16.34375 308.511719 C 16.261719 308.691406 16.179688 308.867188 16.035156 308.980469 Z M 85.421875 318.707031 C 85.46875 318.894531 85.507812 319.09375 85.535156 319.296875 C 85.625 319.9375 85.59375 320.808594 85.21875 321.824219 C 84.910156 322.664062 84.234375 323.851562 83.238281 325.125 C 81.285156 327.628906 78.027344 330.542969 75.0625 332.0625 C 74.78125 332.273438 74.5 332.476562 74.210938 332.675781 C 70.082031 335.578125 65.515625 337.769531 62.363281 338.464844 C 60.039062 338.976562 58.160156 338.703125 56.953125 338.101562 C 55.800781 337.527344 54.703125 336.445312 54.691406 334.425781 C 54.691406 333.976562 54.78125 333.25 55.109375 332.40625 C 55.265625 332.007812 55.496094 331.527344 55.75 331.050781 C 55.875 330.164062 56.167969 329.214844 56.652344 328.214844 C 58.539062 324.328125 64.0625 318.914062 69.3125 315.511719 C 71.503906 314.089844 73.652344 313.011719 75.445312 312.445312 C 77.234375 311.882812 78.816406 311.808594 80.035156 312.058594 C 82.035156 312.476562 83.515625 313.585938 84.273438 315.554688 C 85.074219 316.359375 85.527344 317.503906 85.421875 318.707031 Z M 74.085938 319.097656 C 74.328125 318.953125 74.507812 318.875 74.6875 318.792969 C 74.761719 319.054688 74.929688 319.332031 74.875 319.566406 C 74.839844 319.726562 74.503906 319.820312 74.300781 319.941406 C 74.207031 319.679688 74.113281 319.421875 74.085938 319.097656 Z M 66.683594 326.882812 C 66.613281 327.289062 66.480469 327.636719 66.34375 327.984375 C 66.011719 327.773438 65.550781 327.636719 65.378906 327.332031 C 65.246094 327.101562 65.480469 326.667969 65.554688 326.320312 C 65.90625 326.488281 66.261719 326.652344 66.683594 326.882812 Z M 61.941406 328.5 C 62.144531 328.242188 62.339844 328.097656 62.554688 327.988281 C 62.847656 327.832031 63.15625 327.695312 63.457031 327.550781 C 63.246094 327.964844 63.085938 328.425781 62.789062 328.765625 C 62.6875 328.878906 62.234375 328.683594 61.941406 328.5 Z M 61.164062 331.355469 C 61.273438 331.183594 61.390625 331.085938 61.492188 331.105469 C 61.820312 331.167969 62.144531 331.261719 62.453125 331.378906 C 62.480469 331.386719 62.402344 331.675781 62.371094 331.835938 C 61.96875 331.71875 61.566406 331.601562 61.164062 331.355469 Z M 70.511719 331.875 C 70.195312 331.949219 69.875 331.890625 69.558594 331.832031 C 69.621094 331.714844 69.707031 331.484375 69.738281 331.492188 C 70.003906 331.550781 70.257812 331.65625 70.511719 331.875 Z M 193.085938 348.179688 C 193.03125 348.964844 192.859375 349.804688 192.542969 350.691406 C 191.386719 353.917969 188.007812 358.277344 184.726562 361.386719 C 182.234375 363.746094 179.738281 365.34375 178.292969 365.753906 C 177.082031 366.101562 175.960938 366.097656 174.90625 365.902344 C 171.503906 367.734375 165.542969 366.585938 168.597656 361.671875 C 167.949219 361.230469 167.367188 360.6875 167.050781 360.058594 C 165.882812 357.722656 166.003906 355.160156 167.308594 352.675781 C 167.597656 352.789062 167.894531 352.890625 168.234375 352.953125 C 168.121094 352.628906 167.9375 352.367188 167.757812 352.109375 L 167.515625 352.300781 C 167.933594 351.578125 168.449219 350.863281 169.0625 350.164062 C 172.078125 346.734375 177.679688 343.597656 182 342.253906 C 182.339844 342.324219 182.640625 342.304688 182.824219 342.015625 C 184.820312 341.492188 186.550781 341.371094 187.722656 341.566406 C 189.925781 341.929688 191.265625 342.976562 192.09375 344.195312 C 192.785156 345.214844 193.164062 346.523438 193.09375 348.042969 C 193.027344 348.074219 192.964844 348.113281 192.910156 348.152344 C 192.96875 348.164062 193.027344 348.171875 193.085938 348.179688 Z M 187.195312 344.132812 C 187.460938 344.296875 187.660156 344.53125 187.863281 344.761719 C 187.714844 344.84375 187.566406 344.921875 187.414062 345 C 187.320312 344.730469 187.226562 344.464844 187.195312 344.132812 Z M 124.238281 352.484375 C 125.554688 352.882812 126.503906 353.660156 127.136719 354.605469 C 129.835938 358.652344 128.964844 362.910156 126.175781 366.617188 C 124.015625 369.492188 120.609375 371.9375 117.972656 373.417969 C 116.742188 374.808594 115.546875 375.660156 114.289062 376.15625 C 112.253906 376.96875 109.871094 377.019531 106.550781 376.285156 C 105.421875 376.039062 104.511719 375.335938 103.96875 374.417969 C 102.617188 373.628906 101.386719 372.320312 100.65625 370.125 C 100.050781 368.316406 100.367188 365.941406 102.148438 363.527344 C 102.445312 363.117188 102.800781 362.699219 103.195312 362.273438 C 103.269531 362.304688 103.398438 362.34375 103.476562 362.378906 C 103.480469 362.242188 103.484375 362.105469 103.480469 361.96875 C 105.992188 359.375 110.007812 356.59375 113.824219 354.714844 C 117.234375 353.03125 120.515625 352.121094 122.539062 352.207031 C 122.78125 352.21875 123.015625 352.242188 123.238281 352.269531 C 123.179688 352.378906 123.140625 352.527344 123.042969 352.691406 C 123.667969 353.574219 123.933594 352.890625 124.238281 352.484375 Z M 187.128906 354.703125 C 187.390625 354.808594 187.523438 354.917969 187.652344 355.023438 C 187.480469 355.089844 187.308594 355.15625 187.136719 355.222656 C 187.09375 355.046875 187.046875 354.875 187.128906 354.703125 Z M 183.558594 357.230469 C 183.75 356.691406 184 356.214844 184.253906 355.742188 C 184.4375 355.890625 184.613281 356.039062 184.792969 356.1875 C 184.40625 356.558594 184.015625 356.929688 183.558594 357.230469 Z M 123.304688 368.125 C 123.101562 368.445312 122.832031 368.695312 122.5625 368.945312 C 122.441406 368.742188 122.320312 368.539062 122.199219 368.335938 C 122.542969 368.246094 122.890625 368.152344 123.304688 368.125 Z M 15.238281 397.957031 C 14.703125 398.257812 14.1875 398.527344 13.699219 398.769531 C 11.609375 399.800781 9.820312 400.253906 8.796875 400.253906 C 8.542969 400.253906 8.296875 400.230469 8.058594 400.183594 C 6.34375 400.226562 4.8125 399.78125 3.585938 398.890625 C 2.296875 397.953125 1.1875 396.480469 0.714844 394.109375 C 0.324219 392.15625 0.691406 390.175781 1.789062 388.273438 C 2.929688 386.304688 4.984375 384.355469 7.566406 382.722656 C 11.503906 380.226562 16.671875 378.398438 20.59375 377.910156 C 22.773438 377.636719 24.652344 377.785156 25.992188 378.234375 C 27.179688 378.625 28.386719 379.628906 28.875 381.363281 C 28.992188 381.761719 29.046875 382.226562 29.066406 382.683594 C 29.199219 383.042969 29.277344 383.433594 29.296875 383.835938 C 29.335938 384.683594 29.152344 385.714844 28.570312 386.832031 C 28.023438 387.878906 26.957031 389.195312 25.507812 390.574219 C 23.394531 393.152344 20.601562 395.726562 17.917969 397.027344 C 17.007812 397.46875 16.109375 397.777344 15.238281 397.957031 Z M 228.679688 386.355469 C 228.773438 386.429688 228.859375 386.503906 228.941406 386.578125 C 230.054688 387.609375 230.917969 389.398438 229.925781 391.832031 C 229.148438 393.738281 225.722656 397.488281 223.585938 399.195312 C 218.753906 403.054688 214.738281 402.441406 212.484375 400.785156 C 210.199219 401.445312 208.410156 400.660156 207.542969 399.796875 C 205.949219 398.199219 205.523438 396.128906 206.625 393.746094 C 207.132812 392.648438 208.15625 391.339844 209.472656 390.113281 C 210.390625 389.253906 211.453125 388.410156 212.417969 387.691406 C 213.089844 386.796875 213.914062 385.90625 214.890625 385.050781 C 217.796875 382.515625 222.6875 379.34375 224.449219 378.921875 C 226.4375 378.445312 227.78125 379.179688 228.542969 379.863281 C 229.417969 380.648438 230.136719 381.804688 229.898438 383.613281 C 229.832031 384.09375 229.53125 385.019531 228.679688 386.355469 Z M 17.203125 388.492188 C 17.152344 388.933594 17.03125 389.308594 16.914062 389.6875 C 16.773438 389.554688 16.496094 389.402344 16.511719 389.304688 C 16.578125 388.917969 16.742188 388.550781 16.867188 388.179688 C 16.957031 388.261719 17.046875 388.34375 17.203125 388.492188 Z M 12.074219 390.242188 C 12.113281 390.585938 12.019531 390.933594 11.925781 391.28125 C 11.816406 391.246094 11.699219 391.214844 11.585938 391.183594 C 11.707031 390.871094 11.824219 390.554688 12.074219 390.242188 Z M 12.59375 392.578125 C 12.851562 392.683594 12.984375 392.792969 13.113281 392.898438 C 12.941406 392.964844 12.769531 393.03125 12.597656 393.09375 C 12.554688 392.921875 12.507812 392.75 12.59375 392.578125 Z M 225.570312 393.355469 C 225.660156 393.613281 225.621094 393.871094 225.582031 394.132812 C 225.335938 394.019531 225.089844 393.90625 224.839844 393.792969 C 225.039062 393.648438 225.242188 393.5 225.570312 393.355469 Z M 13.890625 394.652344 C 14.066406 394.4375 14.242188 394.351562 14.414062 394.265625 C 14.46875 394.382812 14.523438 394.5 14.578125 394.617188 C 14.351562 394.671875 14.121094 394.726562 13.890625 394.652344 Z M 215.765625 394.976562 C 215.527344 395.035156 215.355469 395.027344 215.183594 395.023438 C 215.394531 394.8125 215.601562 394.601562 215.8125 394.394531 C 215.820312 394.566406 215.824219 394.738281 215.765625 394.976562 Z M 224.855469 397.179688 C 224.882812 397.027344 224.957031 396.914062 225.0625 396.855469 C 225.285156 396.730469 225.527344 396.632812 225.761719 396.527344 C 225.78125 396.640625 225.839844 396.839844 225.808594 396.859375 C 225.523438 397.003906 225.21875 397.121094 224.855469 397.179688 Z M 10.578125 396.792969 C 10.898438 397.125 10.539062 398.871094 10.144531 399.023438 C 10.035156 399.066406 9.804688 398.992188 9.722656 398.898438 C 9.609375 398.761719 9.472656 398.492188 9.53125 398.386719 C 9.824219 397.855469 10.179688 397.363281 10.578125 396.792969 Z M 11.554688 398.800781 C 11.796875 398.371094 12.042969 398.066406 12.289062 397.765625 C 12.390625 397.945312 12.621094 398.199219 12.570312 398.292969 C 12.3125 398.742188 11.976562 399.148438 11.671875 399.566406 C 11.632812 399.355469 11.59375 399.144531 11.554688 398.800781 Z M 162.722656 409.867188 C 163.472656 411.925781 163.574219 414.359375 163.019531 416.984375 C 162.007812 421.722656 158.789062 427.183594 155.003906 430.960938 C 152.128906 433.824219 148.898438 435.683594 146.089844 436.089844 C 143.402344 436.472656 140.9375 435.78125 138.914062 433.757812 C 136.664062 431.511719 136.011719 427.890625 137.347656 423.617188 C 139.445312 416.890625 146.574219 408.019531 151.703125 404.441406 C 154.980469 402.160156 158.015625 402.015625 159.730469 402.847656 C 161.339844 403.628906 162.902344 405.277344 162.902344 408.667969 C 162.902344 409.082031 162.839844 409.484375 162.722656 409.867188 Z M 84.789062 426.890625 C 79.789062 430.773438 73.71875 434.242188 69.460938 435.46875 C 66.171875 436.417969 63.539062 436.007812 62.007812 434.988281 C 58.734375 432.808594 58.152344 428.40625 61.878906 423.40625 C 62.230469 422.941406 62.617188 422.460938 63.039062 421.972656 L 63.089844 422.128906 C 63.398438 422.003906 63.710938 421.882812 63.953125 421.695312 C 63.6875 421.6875 63.453125 421.71875 63.230469 421.753906 C 66.601562 417.933594 72 413.664062 77.015625 410.734375 C 81.355469 408.203125 85.503906 406.761719 88.066406 406.839844 C 89.898438 406.894531 91.308594 407.53125 92.324219 408.488281 C 92.90625 409.039062 93.402344 409.71875 93.730469 410.570312 C 93.898438 410.808594 94.042969 411.074219 94.160156 411.355469 C 94.773438 412.863281 94.800781 414.746094 93.886719 416.847656 C 92.773438 419.40625 89.863281 422.734375 86.09375 425.84375 C 85.746094 426.132812 85.390625 426.417969 85.027344 426.703125 L 84.984375 426.617188 C 84.914062 426.703125 84.847656 426.792969 84.789062 426.890625 Z M 86.03125 410.800781 C 86.089844 410.527344 86.164062 410.230469 86.351562 410.128906 C 86.554688 410.019531 86.878906 410.019531 87.113281 410.09375 C 87.246094 410.136719 87.410156 410.542969 87.378906 410.570312 C 87.175781 410.746094 86.929688 410.910156 86.675781 410.976562 C 86.503906 411.023438 86.292969 410.90625 86.03125 410.800781 Z M 72.480469 423.785156 C 72.796875 423.648438 73.039062 423.535156 73.125 423.496094 C 73.230469 423.34375 73.390625 423.121094 73.59375 422.835938 C 73.214844 423.148438 72.84375 423.46875 72.480469 423.785156 Z M 69.992188 424.742188 C 70.167969 425.042969 70.214844 425.34375 70.261719 425.644531 C 70.082031 425.644531 69.902344 425.644531 69.726562 425.644531 C 69.773438 425.34375 69.816406 425.042969 69.992188 424.742188 Z M 61.746094 426.882812 C 62.023438 426.855469 62.234375 426.894531 62.445312 426.933594 C 62.296875 427.15625 62.152344 427.375 62.007812 427.597656 C 61.898438 427.382812 61.789062 427.164062 61.746094 426.882812 Z M 80.835938 427.144531 C 80.636719 427.289062 80.371094 427.378906 80.105469 427.433594 C 80.089844 427.4375 80.019531 427.214844 79.976562 427.09375 C 80.242188 427.085938 80.507812 427.082031 80.835938 427.144531 Z M 67.332031 430.90625 C 66.914062 430.964844 66.5625 430.957031 66.214844 430.953125 C 66.257812 430.835938 66.316406 430.605469 66.339844 430.609375 C 66.695312 430.667969 67.042969 430.757812 67.332031 430.90625 Z M 100.203125 462.90625 C 101.546875 461.40625 103.207031 460.148438 105.160156 459.367188 C 107.820312 458.304688 110.300781 458.984375 111.789062 460.304688 C 113.445312 461.773438 114.515625 464.28125 112.890625 467.523438 C 112.8125 467.679688 112.476562 468.195312 112 468.878906 C 112.648438 470.242188 112.804688 472.363281 110.355469 474.8125 C 109.761719 475.40625 109.164062 476.003906 108.566406 476.597656 C 106.683594 478.476562 104.953125 479.402344 103.480469 479.777344 C 102.851562 480.199219 102.089844 480.445312 101.277344 480.445312 C 97.710938 480.445312 96.332031 478.742188 95.8125 477.722656 C 95.183594 476.46875 95.015625 474.816406 96.144531 473.042969 C 96.152344 471.613281 96.417969 469.984375 97.003906 468.332031 C 97.644531 466.519531 98.65625 464.699219 100.007812 463.128906 C 100.167969 463.484375 100.34375 463.875 100.609375 463.945312 C 100.964844 464.042969 101.429688 463.746094 101.84375 463.621094 C 101.675781 463.371094 101.542969 462.972656 101.320312 462.910156 C 100.984375 462.816406 100.609375 462.851562 100.203125 462.90625 Z M 102.394531 467.089844 C 102.484375 467.390625 102.511719 467.625 102.539062 467.855469 C 102.390625 467.847656 102.15625 467.890625 102.109375 467.820312 C 101.964844 467.582031 101.894531 467.304688 101.796875 467.042969 C 101.972656 467.039062 102.152344 467.03125 102.394531 467.089844 "/>
</g>
<g clip-path="url(#clip2)" clip-rule="nonzero">
<g clip-path="url(#clip3)" clip-rule="nonzero">
<path style=" stroke:none;fill-rule:nonzero;fill:rgb(14.898682%,32.939148%,48.629761%);fill-opacity:1;" d="M 1249.660156 20.816406 L 1002.390625 745.90625 L 407.136719 542.910156 L 654.40625 -182.179688 Z M 1249.660156 20.816406 "/>
</g>
</g>
</g>
</svg>
