<?xml version="1.0" encoding="UTF-8"?>
<svg xmlns="http://www.w3.org/2000/svg" xmlns:xlink="http://www.w3.org/1999/xlink" width="1012.5pt" height="487.499991pt" viewBox="0 0 1012.5 487.499991" version="1.2">
<defs>
<clipPath id="clip1">
  <path d="M 653 165 L 1011.730469 165 L 1011.730469 487 L 653 487 Z M 653 165 "/>
</clipPath>
<clipPath id="clip2">
  <path d="M 605.082031 418.839844 L 1036.699219 156.226562 L 1150.859375 343.859375 L 719.242188 606.472656 Z M 605.082031 418.839844 "/>
</clipPath>
<clipPath id="clip3">
  <path d="M 605.082031 418.839844 L 1036.699219 156.226562 L 1150.859375 343.859375 L 719.242188 606.472656 Z M 605.082031 418.839844 "/>
</clipPath>
<clipPath id="clip4">
  <path d="M 0.269531 0 L 639 0 L 639 487 L 0.269531 487 Z M 0.269531 0 "/>
</clipPath>
<clipPath id="clip5">
  <path d="M 68.40625 774.179688 L -178.796875 49.066406 L 391.644531 -145.40625 L 638.847656 579.707031 Z M 68.40625 774.179688 "/>
</clipPath>
</defs>
<g id="surface1">
<g clip-path="url(#clip1)" clip-rule="nonzero">
<g clip-path="url(#clip2)" clip-rule="nonzero">
<g clip-path="url(#clip3)" clip-rule="nonzero">
<path style=" stroke:none;fill-rule:nonzero;fill:rgb(14.898682%,32.939148%,48.629761%);fill-opacity:1;" d="M 986.273438 186.910156 C 998.882812 180.398438 1011.703125 173.761719 1024.445312 167.464844 C 1026.480469 166.515625 1028.769531 164.542969 1030.578125 167.511719 C 1031.738281 169.421875 1030.511719 170.75 1026.308594 172.4375 C 1008.125 180.300781 991.28125 190.839844 974.4375 201.378906 C 964.808594 207.53125 956.082031 215.167969 948.683594 224.03125 C 943.609375 230.027344 938.066406 235.726562 932.390625 241.214844 C 923.121094 250.34375 914.191406 259.558594 904.402344 267.839844 C 897.246094 274.230469 889.617188 280.324219 881.472656 285.574219 C 869.296875 293.273438 858.363281 302.539062 849.359375 313.542969 C 840.863281 323.949219 831.898438 334.058594 823.660156 344.886719 C 809.085938 363.933594 792.195312 380.609375 775.5625 397.707031 C 767.355469 406.191406 759.273438 414.890625 750.59375 423.078125 C 745.59375 427.285156 740.464844 431.277344 734.734375 434.761719 C 725.53125 440.65625 716.066406 446.125 706.988281 452.226562 C 690.191406 463.320312 674.25 475.347656 661.402344 491.015625 C 660.21875 492.898438 658.863281 494.015625 657.507812 495.128906 C 656.449219 495.777344 654.742188 495.359375 653.292969 495.367188 C 653.285156 493.921875 653.015625 492.046875 653.734375 491.320312 C 660.800781 483.820312 667.3125 476.367188 675.109375 469.589844 C 690.402344 456.503906 706.941406 444.984375 724.304688 435.296875 C 739.199219 426.8125 752.335938 415.910156 763.757812 403.148438 C 774.457031 391.109375 786.484375 380.300781 797.1875 368.265625 C 810 353.488281 822.082031 337.992188 834.769531 323.003906 C 842.886719 313.414062 851.261719 304.246094 860.109375 295.371094 C 865.0625 290.613281 870.53125 286.703125 876.261719 283.21875 C 887.164062 276.292969 897.421875 268.308594 906.351562 259.09375 C 916.636719 248.765625 927.308594 239.070312 937.59375 228.742188 C 943.351562 222.914062 948.460938 216.023438 954.21875 210.191406 C 963.488281 201.0625 975.332031 194.726562 986.273438 186.910156 Z M 805.617188 441.367188 C 800.480469 443.914062 795.730469 447.09375 791.109375 450.488281 C 780.175781 459.757812 769.84375 469.53125 759.511719 479.308594 C 752.1875 486.382812 745.511719 494.515625 738.1875 501.589844 C 732.511719 507.078125 726.109375 511.847656 720.097656 517.25 C 711.074219 525.355469 702.523438 533.757812 693.632812 542.078125 C 692.910156 542.808594 692.285156 544.644531 692.753906 544.9375 C 693.402344 546 695.152344 546.96875 696.003906 546.453125 C 698.039062 545.503906 699.738281 544.46875 701.390625 542.882812 C 710.917969 534.175781 719.976562 525.175781 729.503906 516.46875 C 735.816406 510.59375 742.511719 505.355469 748.480469 499.398438 C 759.910156 488.082031 770.996094 476.683594 782.296875 465.152344 C 788.984375 458.46875 796.742188 452.585938 804.933594 447.890625 C 826.707031 434.9375 825.109375 438.523438 840.792969 412.695312 C 846.269531 403.546875 852.609375 395.328125 859.628906 387.277344 C 866.566406 379.566406 872.902344 371.347656 879.496094 363.554688 C 889.773438 351.773438 900.050781 339.996094 910.324219 328.21875 C 918.277344 319.308594 928.15625 312.132812 939.03125 307.554688 C 947.953125 303.578125 956.613281 299.183594 965.277344 294.785156 C 975.976562 289.4375 984.953125 280.777344 990.550781 270.390625 C 992.488281 266.882812 994.507812 263.039062 996.316406 259.320312 C 1001.917969 248.933594 1010.808594 240.613281 1021.425781 235.609375 C 1025.929688 233.453125 1030.171875 230.871094 1034.542969 228.5 C 1042.734375 223.808594 1050.714844 219.242188 1058.695312 214.679688 C 1060.390625 213.644531 1061.960938 212.402344 1060.796875 210.492188 C 1059.597656 209.476562 1058.234375 209.144531 1056.914062 209.363281 C 1053.683594 210.746094 1050.246094 212.257812 1047.273438 214.066406 C 1037.386719 219.792969 1027.839844 225.601562 1017.820312 231.113281 C 1012.386719 234.128906 1007.425781 237.441406 1002.765625 241.726562 C 996.585938 247.816406 991.390625 255.046875 988.164062 263.117188 C 982.113281 276.105469 971.402344 286.695312 958.277344 292.355469 C 950.546875 295.894531 942.945312 299.648438 935.214844 303.1875 C 926.71875 306.902344 918.914062 312.230469 912.097656 318.707031 C 902.152344 329.121094 891.949219 339.109375 883.078125 350.324219 C 863.9375 374.765625 841.539062 396.246094 826.761719 423.558594 C 823.429688 429.074219 818.902344 433.578125 813.125 436.507812 C 810.582031 438.058594 807.824219 439.734375 805.617188 441.367188 Z M 793.578125 430.660156 C 807.621094 421.246094 820.027344 409.625 830.035156 395.972656 C 843.171875 378.386719 856.648438 360.878906 870.382812 343.796875 C 876.128906 336.519531 882.265625 329.878906 889 323.746094 C 900.472656 312.980469 913.066406 303.574219 926.304688 295.230469 C 934.234375 290.113281 941.523438 283.933594 947.824219 276.609375 C 955.515625 267.277344 962.140625 257.140625 967.824219 246.410156 C 972.242188 237.90625 979.484375 231.175781 988.53125 227.414062 C 998.902344 223.429688 1008.578125 217.835938 1017.21875 210.539062 C 1021.289062 207.191406 1025.273438 204.183594 1029.730469 201.472656 C 1032.78125 199.324219 1036.09375 197.601562 1039.617188 195.75 C 1041.101562 194.84375 1043.140625 193.894531 1042.0625 191.644531 C 1040.984375 189.390625 1038.816406 190.128906 1036.859375 190.738281 C 1036.433594 190.996094 1036.222656 191.125 1035.800781 191.382812 C 1029.304688 195.042969 1023.28125 199 1017.304688 203.507812 C 1009 210.886719 999.453125 216.695312 989.132812 221.230469 C 976.808594 225.820312 966.558594 235.257812 961.097656 247.304688 C 958.238281 253.117188 955.121094 258.503906 951.191406 263.511719 C 944.769531 272.070312 938.351562 280.628906 929.273438 286.734375 C 921.679688 291.933594 913.960938 296.925781 906.710938 302.207031 C 894.625 311.015625 882.585938 320.375 872.996094 332.320312 C 857.441406 351.671875 841.804688 371.363281 826.851562 391.222656 C 817.054688 404.742188 804.863281 416.234375 790.820312 425.648438 C 780.472656 432.53125 769.816406 438.429688 759.339844 445.097656 C 751.191406 450.34375 742.707031 455.507812 735.289062 461.472656 C 715.707031 476.589844 697.191406 492.507812 679.582031 509.910156 C 678.4375 510.898438 676.953125 511.800781 675.9375 513 C 674.925781 514.199219 673.910156 515.398438 675.15625 516.964844 C 676.398438 518.535156 678.015625 517.84375 679.371094 516.726562 C 680.644531 515.953125 682 514.835938 683.144531 513.851562 C 687.378906 509.820312 691.398438 505.917969 695.632812 501.890625 C 718.546875 481.257812 741.71875 461.050781 766.210938 447.3125 C 777.03125 440.730469 785.5625 436.121094 793.578125 430.660156 Z M 916.488281 352.679688 C 897.46875 369.195312 885.632812 390.359375 876.960938 413.375 C 873.28125 424.046875 866.609375 433.632812 857.839844 440.714844 C 845.292969 450.671875 833.394531 461.695312 824.363281 475.042969 C 809.925781 495.75 793.21875 514.640625 774.457031 531.582031 C 759.207031 545.222656 744.21875 559.285156 727.597656 571.144531 C 726.960938 571.53125 726.324219 571.917969 725.945312 572.730469 C 725.566406 573.542969 725.316406 574.566406 725.835938 575.414062 C 726.351562 576.265625 727.164062 576.644531 728.269531 576.550781 C 730.011719 576.070312 731.5 575.167969 732.984375 574.265625 C 738.75 569.882812 744.597656 565.164062 750.234375 560.570312 C 779.253906 535.640625 807.757812 509.863281 829.40625 478.078125 C 836.960938 467.085938 846.1875 457.398438 856.785156 449.496094 C 869.082031 440.5625 878.289062 427.980469 883.351562 413.847656 C 886.785156 404.199219 891.242188 394.796875 896.765625 386.199219 C 910.253906 363.453125 928.671875 346.429688 953.488281 336.566406 C 964.492188 332.195312 975.496094 327.828125 986.457031 322.90625 C 994.871094 319.53125 1002.542969 313.988281 1008.292969 306.710938 C 1012.089844 301.492188 1016.234375 296.351562 1020.375 291.214844 C 1028.445312 281.070312 1035.53125 269.777344 1046.730469 262.382812 C 1053.683594 257.570312 1060.6875 253.308594 1067.769531 248.707031 C 1069.042969 247.933594 1070.398438 246.816406 1071.542969 245.832031 C 1072.003906 244.679688 1071.914062 243.570312 1071.394531 242.722656 C 1071.007812 242.085938 1069.644531 241.753906 1068.878906 241.929688 C 1067.898438 242.230469 1067.050781 242.75 1066.203125 243.265625 C 1060.050781 247.007812 1053.683594 250.882812 1047.578125 255.179688 C 1039.644531 260.296875 1032.488281 266.6875 1026.785156 274.519531 C 1022.101562 281.148438 1016.816406 287.273438 1011.789062 293.824219 C 1004.351562 303.582031 996.53125 312.703125 985.015625 317.671875 C 978.558594 320.4375 972.019531 323.546875 965.433594 326.097656 C 954.851562 330.210938 944.097656 333.554688 933.996094 339.410156 C 928.101562 343.578125 921.996094 347.875 916.488281 352.679688 Z M 1089.265625 252.5 C 1088.074219 252.933594 1086.800781 253.707031 1085.527344 254.480469 C 1079.125 259.25 1072.855469 264.230469 1066.664062 268.867188 C 1054.496094 278.015625 1042.457031 287.375 1032.78125 299.660156 C 1021.75 313.0625 1009.128906 324.8125 994.796875 334.699219 C 973.632812 349.609375 954.445312 366.808594 935.519531 384.433594 C 924.042969 395.199219 915.222656 408.414062 906.617188 421.503906 C 899.910156 431.984375 892.265625 441.871094 883.546875 450.957031 C 876.988281 457.855469 870.898438 465.046875 864.339844 471.949219 C 856.980469 479.917969 849.703125 487.542969 841.953125 494.875 C 833.0625 503.195312 823.910156 511.089844 814.886719 519.195312 C 800.996094 531.71875 787.574219 544.539062 772.4375 555.496094 C 761.671875 564.082031 751.339844 573.855469 742.335938 584.859375 C 740.898438 586.316406 739.503906 588.328125 741.433594 590.0625 C 743.359375 591.796875 745.011719 590.210938 746.449219 588.753906 C 747.042969 587.8125 747.972656 586.957031 748.90625 586.097656 C 756.738281 578.425781 764.226562 570.667969 772.316406 563.421875 C 777.90625 558.273438 784.695312 554.144531 790.5 548.867188 C 805.027344 535.957031 819.167969 522.40625 833.957031 509.921875 C 848.953125 497.304688 862.835938 483.332031 875.390625 468.132812 C 877.421875 465.734375 879.453125 463.335938 881.820312 461.019531 C 893.96875 448.976562 904.792969 435.703125 913.730469 421.25 C 921.40625 409.015625 930.363281 397.460938 940.777344 387.34375 C 960.933594 368.390625 982.285156 350.453125 1004.886719 334.085938 C 1016.546875 325.535156 1027.304688 315.5 1036.519531 304.367188 C 1042.605469 297.175781 1049.082031 290.617188 1056.15625 284.566406 C 1065.097656 276.800781 1074.761719 269.757812 1084.171875 262.285156 C 1086.589844 260.527344 1089.136719 258.976562 1091.292969 256.789062 C 1092.011719 256.0625 1092.214844 254.484375 1093.222656 251.835938 C 1091.691406 252.1875 1090.242188 252.195312 1089.265625 252.5 Z M 1089.265625 252.5 "/>
</g>
</g>
</g>
<g clip-path="url(#clip4)" clip-rule="nonzero">
<g clip-path="url(#clip5)" clip-rule="nonzero">
<path style=" stroke:none;fill-rule:nonzero;fill:rgb(93.728638%,27.839661%,43.528748%);fill-opacity:1;" d="M 68.40625 774.179688 L -178.796875 49.066406 L 391.644531 -145.40625 L 638.847656 579.707031 Z M 68.40625 774.179688 "/>
</g>
</g>
</g>
</svg>
