<?xml version="1.0" encoding="UTF-8"?>
<svg xmlns="http://www.w3.org/2000/svg" xmlns:xlink="http://www.w3.org/1999/xlink" width="1012.5pt" height="487.499991pt" viewBox="0 0 1012.5 487.499991" version="1.2">
<defs>
<clipPath id="clip1">
  <path d="M 0.421875 270 L 228.898438 270 L 228.898438 487 L 0.421875 487 Z M 0.421875 270 "/>
</clipPath>
<clipPath id="clip2">
  <path d="M 388 0 L 1011.730469 0 L 1011.730469 487 L 388 487 Z M 388 0 "/>
</clipPath>
<clipPath id="clip3">
  <path d="M 1188.613281 0.824219 L 941.339844 725.914062 L 388.652344 537.4375 L 635.925781 -187.652344 Z M 1188.613281 0.824219 "/>
</clipPath>
</defs>
<g id="surface1">
<g clip-path="url(#clip1)" clip-rule="nonzero">
<path style=" stroke:none;fill-rule:evenodd;fill:rgb(93.728638%,27.839661%,43.528748%);fill-opacity:1;" d="M 86.613281 285.660156 C 85.957031 285.867188 85.375 285.9375 84.914062 285.921875 C 83.554688 285.863281 82.488281 285.304688 81.679688 284.324219 C 81.058594 283.570312 80.195312 281.984375 80.898438 279.171875 C 81.476562 276.859375 82.773438 275.679688 84.109375 275.058594 C 84.199219 275.015625 84.285156 274.980469 84.371094 274.945312 C 85.097656 273.644531 86.285156 272.40625 88.082031 271.378906 C 92.09375 269.082031 94.363281 271.074219 95.015625 271.941406 C 95.566406 272.671875 95.976562 273.664062 95.855469 274.972656 C 95.8125 275.472656 95.582031 276.242188 95.152344 277.136719 C 96.113281 278.664062 95.933594 280.714844 94.605469 282.042969 C 93.996094 282.652344 93.394531 283.136719 92.8125 283.519531 C 92.121094 284.664062 90.804688 285.785156 88.210938 285.914062 C 87.648438 285.9375 87.109375 285.847656 86.613281 285.660156 Z M 81.453125 282.128906 C 81.65625 282.273438 81.792969 282.476562 81.933594 282.683594 C 81.699219 282.726562 81.46875 282.773438 81.238281 282.816406 C 81.289062 282.609375 81.339844 282.402344 81.453125 282.128906 Z M 203.761719 308.03125 C 199.566406 309.914062 195.714844 309.4375 192.921875 305.988281 C 191.582031 304.332031 191.800781 301.910156 193.398438 300.519531 C 193.429688 299.875 193.554688 299.207031 193.777344 298.519531 C 194.757812 295.460938 198.425781 291.570312 202.386719 289.03125 C 202.910156 288.691406 203.441406 288.378906 203.96875 288.09375 C 206.914062 284.617188 211.324219 282.460938 217.027344 284.363281 C 218.222656 284.765625 218.992188 285.53125 219.460938 286.53125 C 219.84375 287.339844 219.851562 288.96875 219.605469 289.960938 C 219.1875 291.636719 217.730469 294.460938 215.566406 297.402344 C 214.65625 298.636719 213.628906 299.890625 212.527344 301.097656 C 212.273438 301.464844 212.019531 301.808594 211.773438 302.117188 C 210.449219 303.777344 209.160156 304.808594 207.980469 305.421875 C 207.429688 306.945312 205.972656 308.035156 204.265625 308.035156 C 204.09375 308.035156 203.925781 308.035156 203.761719 308.03125 Z M 139.714844 295.929688 C 139.832031 295.875 139.949219 295.824219 140.066406 295.777344 C 141.589844 295.15625 143.085938 295.054688 144.484375 295.449219 C 145.851562 295.828125 147.214844 296.679688 148.355469 298.394531 C 149.609375 300.277344 149.976562 302.851562 149.3125 305.671875 C 148.605469 308.675781 146.714844 312.046875 144.484375 314.542969 C 142.796875 316.429688 140.890625 317.808594 139.207031 318.433594 C 137.257812 319.152344 135.4375 319.042969 133.890625 318.269531 C 132.519531 317.578125 131.621094 316.574219 131.167969 315.308594 C 130.984375 315.277344 130.808594 315.238281 130.636719 315.1875 C 129.269531 314.816406 128.203125 314.078125 127.433594 313.03125 C 126.757812 312.113281 126.277344 310.902344 126.277344 309.289062 C 126.277344 306.4375 127.417969 303.808594 129.277344 301.628906 C 131.707031 298.78125 135.394531 296.765625 138.632812 296.101562 C 139 296.03125 139.359375 295.96875 139.714844 295.929688 Z M 207.546875 297.910156 C 207.890625 298.105469 208.101562 298.300781 208.316406 298.492188 C 208.105469 298.558594 207.882812 298.695312 207.6875 298.667969 C 207.390625 298.621094 207.109375 298.460938 206.824219 298.347656 C 207.019531 298.203125 207.21875 298.054688 207.546875 297.910156 Z M 145.367188 303.644531 C 145.644531 303.636719 145.859375 303.691406 146.074219 303.75 C 146 303.863281 145.929688 303.980469 145.851562 304.09375 C 145.667969 303.964844 145.488281 303.835938 145.367188 303.644531 Z M 16.03125 314.109375 C 16.410156 314.324219 16.761719 314.582031 17.085938 314.878906 C 19.617188 317.183594 20.800781 323.878906 14.152344 327.871094 C 12.675781 328.757812 11.199219 329.648438 9.726562 330.535156 C 6.390625 332.539062 4.109375 331.96875 2.9375 331.28125 C 1.609375 330.503906 0.5625 329.089844 0.492188 326.871094 C 0.429688 325.207031 1.179688 322.453125 2.414062 319.664062 C 4.070312 315.941406 6.476562 312.121094 7.554688 311.039062 C 8.980469 309.617188 9.980469 309.007812 10.492188 308.800781 C 11.378906 308.429688 12.117188 308.417969 12.667969 308.488281 C 14.121094 308.664062 15.140625 309.414062 15.785156 310.648438 C 16.105469 311.257812 16.515625 312.460938 16.03125 314.109375 Z M 16.253906 316.910156 C 16.195312 316.667969 16.199219 316.492188 16.207031 316.316406 C 16.320312 316.359375 16.441406 316.402344 16.558594 316.445312 C 16.480469 316.621094 16.398438 316.796875 16.253906 316.910156 Z M 84.964844 326.570312 C 85.011719 326.757812 85.050781 326.953125 85.078125 327.15625 C 85.167969 327.792969 85.136719 328.65625 84.765625 329.667969 C 84.460938 330.5 83.789062 331.679688 82.800781 332.945312 C 80.871094 335.429688 77.644531 338.324219 74.707031 339.832031 C 74.429688 340.042969 74.148438 340.246094 73.863281 340.445312 C 69.777344 343.324219 65.25 345.5 62.132812 346.191406 C 59.828125 346.703125 57.96875 346.429688 56.773438 345.832031 C 55.632812 345.261719 54.546875 344.183594 54.535156 342.183594 C 54.53125 341.738281 54.621094 341.011719 54.949219 340.175781 C 55.101562 339.78125 55.332031 339.300781 55.582031 338.832031 C 55.707031 337.949219 55.996094 337.007812 56.472656 336.011719 C 58.34375 332.152344 63.8125 326.777344 69.011719 323.398438 C 71.183594 321.984375 73.3125 320.914062 75.085938 320.351562 C 76.859375 319.792969 78.421875 319.71875 79.632812 319.96875 C 81.613281 320.382812 83.078125 321.484375 83.828125 323.441406 C 84.621094 324.242188 85.070312 325.375 84.964844 326.570312 Z M 73.738281 326.960938 C 73.980469 326.816406 74.15625 326.734375 74.335938 326.65625 C 74.410156 326.914062 74.574219 327.191406 74.523438 327.421875 C 74.484375 327.582031 74.152344 327.675781 73.949219 327.796875 C 73.859375 327.539062 73.765625 327.28125 73.738281 326.960938 Z M 66.40625 334.6875 C 66.339844 335.09375 66.207031 335.4375 66.074219 335.78125 C 65.742188 335.574219 65.289062 335.4375 65.117188 335.136719 C 64.988281 334.910156 65.21875 334.476562 65.289062 334.132812 C 65.640625 334.296875 65.992188 334.460938 66.40625 334.6875 Z M 61.714844 336.296875 C 61.914062 336.039062 62.109375 335.898438 62.320312 335.785156 C 62.613281 335.632812 62.917969 335.496094 63.214844 335.355469 C 63.003906 335.765625 62.847656 336.222656 62.550781 336.5625 C 62.453125 336.675781 62.003906 336.480469 61.714844 336.296875 Z M 60.941406 339.132812 C 61.050781 338.960938 61.167969 338.867188 61.269531 338.882812 C 61.589844 338.945312 61.914062 339.039062 62.21875 339.15625 C 62.246094 339.164062 62.167969 339.449219 62.140625 339.609375 C 61.738281 339.492188 61.339844 339.375 60.941406 339.132812 Z M 70.199219 339.648438 C 69.886719 339.71875 69.570312 339.664062 69.257812 339.605469 C 69.320312 339.488281 69.402344 339.261719 69.433594 339.269531 C 69.695312 339.328125 69.945312 339.429688 70.199219 339.648438 Z M 191.578125 355.839844 C 191.527344 356.621094 191.355469 357.457031 191.042969 358.335938 C 189.898438 361.542969 186.550781 365.867188 183.300781 368.957031 C 180.835938 371.300781 178.359375 372.886719 176.929688 373.296875 C 175.730469 373.640625 174.621094 373.636719 173.578125 373.441406 C 170.207031 375.261719 164.304688 374.121094 167.328125 369.242188 C 166.6875 368.804688 166.113281 368.265625 165.796875 367.636719 C 164.640625 365.320312 164.761719 362.773438 166.054688 360.304688 C 166.339844 360.417969 166.636719 360.519531 166.972656 360.582031 C 166.855469 360.257812 166.675781 360 166.5 359.742188 L 166.261719 359.933594 C 166.671875 359.214844 167.183594 358.507812 167.792969 357.8125 C 170.777344 354.40625 176.324219 351.289062 180.601562 349.953125 C 180.941406 350.027344 181.238281 350.007812 181.417969 349.71875 C 183.394531 349.199219 185.109375 349.078125 186.269531 349.273438 C 188.449219 349.636719 189.777344 350.671875 190.597656 351.882812 C 191.28125 352.894531 191.660156 354.195312 191.585938 355.703125 C 191.523438 355.738281 191.460938 355.773438 191.40625 355.8125 C 191.464844 355.824219 191.523438 355.832031 191.578125 355.839844 Z M 185.75 351.820312 C 186.011719 351.988281 186.207031 352.21875 186.40625 352.449219 C 186.261719 352.527344 186.113281 352.605469 185.964844 352.683594 C 185.871094 352.417969 185.777344 352.152344 185.75 351.820312 Z M 123.402344 360.117188 C 124.707031 360.511719 125.648438 361.285156 126.273438 362.222656 C 128.945312 366.242188 128.082031 370.46875 125.324219 374.152344 C 123.179688 377.007812 119.8125 379.4375 117.199219 380.90625 C 115.980469 382.285156 114.796875 383.132812 113.550781 383.628906 C 111.535156 384.433594 109.175781 384.480469 105.886719 383.757812 C 104.769531 383.511719 103.871094 382.8125 103.332031 381.898438 C 101.992188 381.117188 100.777344 379.816406 100.050781 377.636719 C 99.453125 375.839844 99.765625 373.480469 101.527344 371.082031 C 101.824219 370.675781 102.171875 370.261719 102.5625 369.839844 C 102.640625 369.867188 102.765625 369.910156 102.84375 369.941406 C 102.847656 369.808594 102.851562 369.671875 102.847656 369.535156 C 105.335938 366.960938 109.3125 364.199219 113.089844 362.332031 C 116.464844 360.65625 119.714844 359.757812 121.71875 359.839844 C 121.960938 359.851562 122.191406 359.875 122.414062 359.90625 C 122.355469 360.011719 122.320312 360.160156 122.21875 360.324219 C 122.839844 361.199219 123.101562 360.519531 123.402344 360.117188 Z M 185.683594 362.320312 C 185.941406 362.425781 186.070312 362.53125 186.199219 362.640625 C 186.027344 362.703125 185.859375 362.769531 185.6875 362.835938 C 185.644531 362.664062 185.601562 362.492188 185.683594 362.320312 Z M 182.148438 364.832031 C 182.332031 364.296875 182.585938 363.824219 182.835938 363.351562 C 183.015625 363.5 183.191406 363.648438 183.371094 363.796875 C 182.984375 364.164062 182.597656 364.53125 182.148438 364.832031 Z M 122.476562 375.652344 C 122.277344 375.964844 122.011719 376.214844 121.746094 376.464844 C 121.625 376.265625 121.503906 376.0625 121.382812 375.859375 C 121.726562 375.769531 122.070312 375.679688 122.476562 375.652344 Z M 15.464844 405.277344 C 14.933594 405.574219 14.425781 405.84375 13.941406 406.085938 C 11.871094 407.109375 10.101562 407.558594 9.085938 407.558594 C 8.835938 407.558594 8.589844 407.535156 8.355469 407.488281 C 6.65625 407.53125 5.140625 407.089844 3.925781 406.207031 C 2.648438 405.273438 1.550781 403.808594 1.082031 401.457031 C 0.695312 399.515625 1.058594 397.550781 2.148438 395.660156 C 3.277344 393.703125 5.3125 391.769531 7.867188 390.148438 C 11.769531 387.667969 16.882812 385.851562 20.769531 385.367188 C 22.925781 385.09375 24.789062 385.246094 26.117188 385.691406 C 27.289062 386.078125 28.484375 387.074219 28.96875 388.796875 C 29.082031 389.191406 29.140625 389.652344 29.160156 390.109375 C 29.289062 390.464844 29.367188 390.851562 29.386719 391.253906 C 29.425781 392.09375 29.246094 393.121094 28.664062 394.230469 C 28.128906 395.269531 27.070312 396.578125 25.636719 397.945312 C 23.539062 400.503906 20.777344 403.0625 18.117188 404.355469 C 17.21875 404.792969 16.328125 405.101562 15.464844 405.277344 Z M 226.828125 393.753906 C 226.921875 393.828125 227.007812 393.902344 227.085938 393.976562 C 228.191406 395.003906 229.046875 396.777344 228.058594 399.195312 C 227.289062 401.085938 223.898438 404.8125 221.78125 406.507812 C 217 410.339844 213.019531 409.730469 210.789062 408.085938 C 208.527344 408.742188 206.757812 407.960938 205.898438 407.105469 C 204.316406 405.519531 203.894531 403.460938 204.988281 401.09375 C 205.488281 400.003906 206.503906 398.707031 207.808594 397.488281 C 208.71875 396.636719 209.769531 395.796875 210.722656 395.082031 C 211.390625 394.191406 212.207031 393.3125 213.171875 392.460938 C 216.050781 389.941406 220.894531 386.792969 222.640625 386.371094 C 224.605469 385.902344 225.9375 386.628906 226.691406 387.308594 C 227.558594 388.089844 228.269531 389.234375 228.03125 391.03125 C 227.96875 391.511719 227.671875 392.429688 226.828125 393.753906 Z M 17.410156 395.875 C 17.359375 396.316406 17.242188 396.6875 17.125 397.0625 C 16.984375 396.933594 16.710938 396.78125 16.726562 396.683594 C 16.792969 396.300781 16.953125 395.9375 17.078125 395.566406 C 17.167969 395.648438 17.257812 395.730469 17.410156 395.875 Z M 12.332031 397.613281 C 12.367188 397.957031 12.277344 398.300781 12.1875 398.644531 C 12.074219 398.613281 11.960938 398.582031 11.847656 398.550781 C 11.96875 398.238281 12.085938 397.929688 12.332031 397.613281 Z M 12.847656 399.933594 C 13.101562 400.039062 13.230469 400.148438 13.359375 400.253906 C 13.1875 400.320312 13.019531 400.382812 12.851562 400.449219 C 12.804688 400.277344 12.761719 400.105469 12.847656 399.933594 Z M 223.75 400.707031 C 223.835938 400.964844 223.800781 401.222656 223.757812 401.480469 C 223.515625 401.367188 223.273438 401.257812 223.027344 401.144531 C 223.222656 400.996094 223.421875 400.851562 223.75 400.707031 Z M 14.128906 401.996094 C 14.304688 401.78125 14.476562 401.699219 14.648438 401.613281 C 14.703125 401.726562 14.757812 401.84375 14.8125 401.957031 C 14.585938 402.015625 14.359375 402.070312 14.128906 401.996094 Z M 214.039062 402.316406 C 213.804688 402.375 213.632812 402.371094 213.460938 402.363281 C 213.671875 402.15625 213.878906 401.945312 214.085938 401.738281 C 214.09375 401.910156 214.097656 402.082031 214.039062 402.316406 Z M 223.042969 404.507812 C 223.066406 404.355469 223.140625 404.242188 223.246094 404.183594 C 223.46875 404.058594 223.707031 403.964844 223.9375 403.859375 C 223.957031 403.972656 224.015625 404.167969 223.984375 404.1875 C 223.703125 404.332031 223.402344 404.449219 223.042969 404.507812 Z M 10.851562 404.121094 C 11.167969 404.449219 10.808594 406.183594 10.421875 406.335938 C 10.3125 406.378906 10.085938 406.308594 10.003906 406.210938 C 9.890625 406.078125 9.753906 405.808594 9.816406 405.703125 C 10.105469 405.179688 10.457031 404.6875 10.851562 404.121094 Z M 11.816406 406.117188 C 12.058594 405.6875 12.300781 405.386719 12.542969 405.085938 C 12.644531 405.265625 12.875 405.519531 12.824219 405.613281 C 12.566406 406.058594 12.238281 406.460938 11.933594 406.878906 C 11.894531 406.667969 11.855469 406.457031 11.816406 406.117188 Z M 161.511719 417.105469 C 162.253906 419.148438 162.359375 421.570312 161.804688 424.175781 C 160.804688 428.882812 157.617188 434.304688 153.867188 438.054688 C 151.023438 440.898438 147.824219 442.746094 145.039062 443.148438 C 142.378906 443.53125 139.9375 442.84375 137.933594 440.835938 C 135.707031 438.601562 135.0625 435.003906 136.386719 430.761719 C 138.460938 424.082031 145.523438 415.269531 150.601562 411.71875 C 153.847656 409.449219 156.851562 409.308594 158.550781 410.132812 C 160.144531 410.910156 161.691406 412.546875 161.691406 415.914062 C 161.691406 416.328125 161.628906 416.726562 161.511719 417.105469 Z M 84.335938 434.011719 C 79.386719 437.871094 73.378906 441.3125 69.160156 442.535156 C 65.902344 443.476562 63.296875 443.066406 61.78125 442.054688 C 58.539062 439.890625 57.960938 435.519531 61.652344 430.554688 C 62 430.089844 62.382812 429.613281 62.800781 429.128906 L 62.847656 429.285156 C 63.15625 429.160156 63.464844 429.039062 63.707031 428.855469 C 63.441406 428.847656 63.210938 428.875 62.988281 428.910156 C 66.328125 425.117188 71.671875 420.878906 76.640625 417.964844 C 80.9375 415.453125 85.046875 414.023438 87.585938 414.097656 C 89.394531 414.15625 90.792969 414.789062 91.796875 415.738281 C 92.375 416.285156 92.867188 416.957031 93.191406 417.804688 C 93.359375 418.042969 93.503906 418.304688 93.617188 418.585938 C 94.222656 420.082031 94.25 421.953125 93.347656 424.039062 C 92.246094 426.582031 89.363281 429.882812 85.628906 432.972656 C 85.285156 433.261719 84.933594 433.542969 84.574219 433.828125 L 84.53125 433.738281 C 84.464844 433.828125 84.398438 433.917969 84.335938 434.011719 Z M 85.570312 418.035156 C 85.628906 417.761719 85.703125 417.464844 85.882812 417.367188 C 86.085938 417.257812 86.40625 417.257812 86.640625 417.332031 C 86.773438 417.375 86.933594 417.777344 86.902344 417.804688 C 86.699219 417.980469 86.460938 418.140625 86.207031 418.207031 C 86.039062 418.253906 85.828125 418.140625 85.570312 418.035156 Z M 72.148438 430.929688 C 72.464844 430.792969 72.703125 430.679688 72.789062 430.640625 C 72.890625 430.492188 73.050781 430.269531 73.253906 429.984375 C 72.875 430.296875 72.507812 430.613281 72.148438 430.929688 Z M 69.6875 431.882812 C 69.859375 432.179688 69.90625 432.476562 69.949219 432.773438 C 69.773438 432.773438 69.597656 432.773438 69.421875 432.773438 C 69.46875 432.476562 69.511719 432.179688 69.6875 431.882812 Z M 61.519531 434.007812 C 61.792969 433.980469 62.003906 434.019531 62.210938 434.054688 C 62.066406 434.277344 61.921875 434.496094 61.777344 434.714844 C 61.671875 434.5 61.5625 434.285156 61.519531 434.007812 Z M 80.425781 434.265625 C 80.226562 434.410156 79.964844 434.496094 79.699219 434.554688 C 79.683594 434.558594 79.617188 434.332031 79.574219 434.214844 C 79.835938 434.207031 80.097656 434.203125 80.425781 434.265625 Z M 67.050781 438 C 66.636719 438.058594 66.289062 438.054688 65.945312 438.050781 C 65.984375 437.929688 66.046875 437.703125 66.070312 437.707031 C 66.421875 437.765625 66.765625 437.855469 67.050781 438 Z M 99.605469 469.78125 C 100.933594 468.289062 102.578125 467.042969 104.511719 466.269531 C 107.148438 465.210938 109.601562 465.886719 111.078125 467.199219 C 112.714844 468.65625 113.777344 471.148438 112.167969 474.367188 C 112.089844 474.523438 111.757812 475.035156 111.285156 475.714844 C 111.925781 477.070312 112.082031 479.175781 109.65625 481.605469 C 109.066406 482.195312 108.476562 482.789062 107.882812 483.378906 C 106.019531 485.246094 104.304688 486.167969 102.847656 486.539062 C 102.222656 486.957031 101.472656 487.199219 100.667969 487.199219 C 97.132812 487.199219 95.765625 485.507812 95.253906 484.496094 C 94.628906 483.25 94.464844 481.609375 95.582031 479.851562 C 95.589844 478.429688 95.855469 476.808594 96.433594 475.171875 C 97.070312 473.371094 98.070312 471.5625 99.410156 470 C 99.566406 470.355469 99.742188 470.746094 100.003906 470.8125 C 100.359375 470.910156 100.816406 470.617188 101.226562 470.492188 C 101.058594 470.246094 100.929688 469.847656 100.710938 469.785156 C 100.375 469.691406 100.003906 469.730469 99.605469 469.78125 Z M 101.773438 473.9375 C 101.863281 474.234375 101.890625 474.46875 101.917969 474.699219 C 101.769531 474.691406 101.535156 474.734375 101.492188 474.664062 C 101.347656 474.425781 101.277344 474.148438 101.179688 473.890625 C 101.355469 473.886719 101.53125 473.878906 101.773438 473.9375 "/>
</g>
<g clip-path="url(#clip2)" clip-rule="nonzero">
<g clip-path="url(#clip3)" clip-rule="nonzero">
<path style=" stroke:none;fill-rule:nonzero;fill:rgb(14.898682%,32.939148%,48.629761%);fill-opacity:1;" d="M 1188.613281 0.824219 L 941.339844 725.914062 L 388.652344 537.4375 L 635.925781 -187.652344 Z M 1188.613281 0.824219 "/>
</g>
</g>
</g>
</svg>
