<?xml version="1.0" encoding="UTF-8"?>
<svg xmlns="http://www.w3.org/2000/svg" xmlns:xlink="http://www.w3.org/1999/xlink" width="1012.5pt" height="487.499991pt" viewBox="0 0 1012.5 487.499991" version="1.2">
<defs>
<clipPath id="clip1">
  <path d="M 0.269531 0 L 528 0 L 528 487 L 0.269531 487 Z M 0.269531 0 "/>
</clipPath>
<filter id="alpha" filterUnits="objectBoundingBox" x="0%" y="0%" width="100%" height="100%">
  <feColorMatrix type="matrix" in="SourceGraphic" values="0 0 0 0 1 0 0 0 0 1 0 0 0 0 1 0 0 0 1 0"/>
</filter>
<mask id="mask0">
  <g filter="url(#alpha)">
<rect x="0" y="0" width="1012.5" height="487.499991" style="fill:rgb(0%,0%,0%);fill-opacity:0.898;stroke:none;"/>
  </g>
</mask>
<clipPath id="clip3">
  <path d="M 0.269531 0 L 527 0 L 527 487 L 0.269531 487 Z M 0.269531 0 "/>
</clipPath>
<clipPath id="clip2">
  <rect x="0" y="0" width="528" height="487"/>
</clipPath>
<g id="surface5" clip-path="url(#clip2)">
<g clip-path="url(#clip3)" clip-rule="nonzero">
<path style=" stroke:none;fill-rule:nonzero;fill:rgb(93.728638%,27.839661%,43.528748%);fill-opacity:1;" d="M 526.96875 521.25 L -29.609375 521.25 L -29.609375 -34.230469 Z M 526.96875 521.25 "/>
</g>
</g>
<clipPath id="clip4">
  <path d="M 607 127 L 1011.730469 127 L 1011.730469 487 L 607 487 Z M 607 127 "/>
</clipPath>
<clipPath id="clip5">
  <path d="M 549.792969 430.691406 L 1027.421875 116.0625 L 1163.910156 323.265625 L 686.28125 637.894531 Z M 549.792969 430.691406 "/>
</clipPath>
<clipPath id="clip6">
  <path d="M 549.792969 430.691406 L 1027.421875 116.0625 L 1163.910156 323.265625 L 686.28125 637.894531 Z M 549.792969 430.691406 "/>
</clipPath>
</defs>
<g id="surface1">
<g clip-path="url(#clip1)" clip-rule="nonzero">
<use xlink:href="#surface5" transform="matrix(1,0,0,1,0.000000000000000056,0)" mask="url(#mask0)"/>
</g>
<g clip-path="url(#clip4)" clip-rule="nonzero">
<g clip-path="url(#clip5)" clip-rule="nonzero">
<g clip-path="url(#clip6)" clip-rule="nonzero">
<path style=" stroke:none;fill-rule:nonzero;fill:rgb(100%,76.858521%,23.919678%);fill-opacity:1;" d="M 971.617188 152.824219 C 985.617188 144.945312 999.851562 136.914062 1014.007812 129.269531 C 1016.273438 128.113281 1018.78125 125.785156 1020.945312 129.066406 C 1022.332031 131.179688 1021 132.730469 1016.308594 134.808594 C 996.0625 144.449219 977.4375 157.054688 958.808594 169.664062 C 948.164062 177.011719 938.597656 186 930.582031 196.320312 C 925.082031 203.304688 919.039062 209.976562 912.84375 216.410156 C 902.722656 227.109375 892.992188 237.890625 882.253906 247.652344 C 874.410156 255.171875 866.027344 262.375 857.023438 268.640625 C 843.5625 277.84375 831.570312 288.769531 821.824219 301.574219 C 812.628906 313.679688 802.890625 325.472656 794.007812 338.050781 C 778.28125 360.171875 759.84375 379.710938 741.714844 399.71875 C 732.765625 409.648438 723.972656 419.808594 714.484375 429.421875 C 708.996094 434.378906 703.355469 439.105469 697.015625 443.28125 C 686.839844 450.320312 676.355469 456.890625 666.335938 464.164062 C 647.78125 477.394531 630.234375 491.640625 616.324219 509.878906 C 615.0625 512.054688 613.574219 513.371094 612.085938 514.6875 C 610.910156 515.460938 608.964844 515.0625 607.328125 515.132812 C 607.261719 513.496094 606.882812 511.390625 607.667969 510.539062 C 615.363281 501.773438 622.429688 493.085938 630.976562 485.101562 C 647.75 469.683594 665.996094 455.984375 685.242188 444.3125 C 701.75 434.113281 716.171875 421.25 728.578125 406.355469 C 740.203125 392.3125 753.375 379.601562 764.996094 365.5625 C 778.898438 348.335938 791.949219 330.328125 805.699219 312.871094 C 814.496094 301.695312 823.605469 290.992188 833.257812 280.601562 C 838.667969 275.019531 844.699219 270.375 851.039062 266.199219 C 863.09375 257.921875 874.375 248.472656 884.105469 237.691406 C 895.328125 225.59375 907.011719 214.203125 918.234375 202.105469 C 924.511719 195.28125 930.015625 187.285156 936.292969 180.460938 C 946.414062 169.761719 959.558594 162.113281 971.617188 152.824219 Z M 777.417969 447.789062 C 771.710938 450.878906 766.464844 454.667969 761.371094 458.695312 C 749.378906 469.621094 738.085938 481.09375 726.789062 492.566406 C 718.789062 500.863281 711.558594 510.332031 703.558594 518.625 C 697.359375 525.0625 690.308594 530.714844 683.722656 537.070312 C 673.84375 546.601562 664.507812 556.449219 654.78125 566.21875 C 653.996094 567.070312 653.359375 569.171875 653.90625 569.484375 C 654.675781 570.65625 656.695312 571.679688 657.636719 571.058594 C 659.902344 569.902344 661.78125 568.664062 663.585938 566.804688 C 674.015625 556.574219 683.902344 546.027344 694.332031 535.796875 C 701.234375 528.898438 708.597656 522.699219 715.109375 515.722656 C 727.585938 502.460938 739.671875 489.125 751.992188 475.628906 C 759.289062 467.796875 767.828125 460.828125 776.902344 455.1875 C 801.007812 439.644531 799.34375 443.765625 816.054688 413.9375 C 821.886719 403.371094 828.726562 393.824219 836.347656 384.4375 C 843.882812 375.4375 850.726562 365.890625 857.875 356.8125 C 869.027344 343.078125 880.179688 329.347656 891.332031 315.613281 C 899.972656 305.21875 910.859375 296.703125 922.972656 291.074219 C 932.902344 286.214844 942.523438 280.886719 952.140625 275.558594 C 964.027344 269.070312 973.835938 258.914062 979.753906 246.949219 C 981.808594 242.90625 983.9375 238.476562 985.835938 234.203125 C 991.757812 222.238281 1001.480469 212.46875 1013.289062 206.371094 C 1018.292969 203.75 1022.988281 200.65625 1027.839844 197.796875 C 1036.914062 192.152344 1045.757812 186.667969 1054.597656 181.179688 C 1056.476562 179.941406 1058.199219 178.46875 1056.808594 176.359375 C 1055.414062 175.261719 1053.855469 174.945312 1052.375 175.25 C 1048.777344 176.945312 1044.949219 178.796875 1041.660156 180.960938 C 1030.707031 187.839844 1020.140625 194.800781 1009.03125 201.445312 C 1003.007812 205.078125 997.527344 209.023438 992.429688 214.0625 C 985.683594 221.195312 980.097656 229.582031 976.765625 238.832031 C 970.4375 253.757812 958.746094 266.164062 944.128906 273.105469 C 935.53125 277.425781 927.085938 281.980469 918.484375 286.300781 C 909.023438 290.851562 900.414062 297.195312 892.960938 304.792969 C 882.128906 316.972656 870.988281 328.679688 861.398438 341.71875 C 840.722656 370.125 816.25 395.324219 800.621094 426.792969 C 797.070312 433.164062 792.128906 438.433594 785.714844 441.988281 C 782.898438 443.84375 779.847656 445.855469 777.417969 447.789062 Z M 763.382812 436.195312 C 778.886719 424.976562 792.457031 411.332031 803.230469 395.496094 C 817.386719 375.078125 831.933594 354.742188 846.789062 334.871094 C 853 326.414062 859.671875 318.65625 867.042969 311.449219 C 879.59375 298.8125 893.457031 287.660156 908.09375 277.683594 C 916.863281 271.574219 924.855469 264.289062 931.691406 255.753906 C 940.019531 244.890625 947.109375 233.164062 953.109375 220.808594 C 957.769531 211.015625 965.691406 203.109375 975.773438 198.484375 C 987.339844 193.554688 998.058594 186.828125 1007.542969 178.230469 C 1012.007812 174.277344 1016.394531 170.714844 1021.328125 167.46875 C 1024.695312 164.914062 1028.371094 162.828125 1032.28125 160.589844 C 1033.925781 159.503906 1036.191406 158.347656 1034.882812 155.847656 C 1033.574219 153.351562 1031.152344 154.273438 1028.964844 155.042969 C 1028.496094 155.351562 1028.261719 155.507812 1027.789062 155.816406 C 1020.59375 160.222656 1013.9375 164.941406 1007.359375 170.285156 C 998.261719 178.964844 987.699219 185.921875 976.207031 191.476562 C 962.453125 197.175781 951.238281 208.257812 945.542969 222.09375 C 942.539062 228.78125 939.226562 234.996094 934.980469 240.816406 C 928.058594 250.753906 921.136719 260.6875 911.117188 267.960938 C 902.738281 274.152344 894.207031 280.109375 886.21875 286.382812 C 872.902344 296.832031 859.664062 307.90625 849.289062 321.800781 C 832.46875 344.308594 815.566406 367.203125 799.445312 390.257812 C 788.902344 405.941406 775.570312 419.429688 760.066406 430.648438 C 748.636719 438.851562 736.824219 445.960938 725.242188 453.929688 C 716.238281 460.195312 706.847656 466.382812 698.699219 473.429688 C 677.152344 491.320312 656.847656 510.070312 637.625 530.464844 C 636.371094 531.625 634.730469 532.707031 633.628906 534.105469 C 632.53125 535.503906 631.429688 536.898438 632.898438 538.621094 C 634.371094 540.339844 636.167969 539.492188 637.65625 538.175781 C 639.066406 537.246094 640.554688 535.929688 641.808594 534.765625 C 646.4375 530.039062 650.828125 525.464844 655.457031 520.734375 C 680.550781 496.476562 705.949219 472.683594 733.097656 456.148438 C 745.070312 448.257812 754.535156 442.695312 763.382812 436.195312 Z M 899.265625 342.988281 C 878.414062 362.4375 865.871094 386.835938 856.976562 413.195312 C 853.234375 425.40625 846.074219 436.511719 836.433594 444.875 C 822.644531 456.648438 809.625 469.59375 799.941406 485.046875 C 784.4375 509.042969 766.296875 531.074219 745.75 550.996094 C 729.050781 567.039062 712.65625 583.550781 694.332031 597.636719 C 693.628906 598.101562 692.925781 598.566406 692.527344 599.5 C 692.132812 600.429688 691.890625 601.597656 692.507812 602.535156 C 693.125 603.472656 694.058594 603.867188 695.308594 603.71875 C 697.261719 603.101562 698.902344 602.019531 700.546875 600.9375 C 706.890625 595.75 713.316406 590.171875 719.507812 584.75 C 751.335938 555.382812 782.542969 525.078125 805.765625 488.269531 C 813.875 475.535156 823.921875 464.210938 835.59375 454.84375 C 849.140625 444.234375 859.054688 429.640625 864.222656 413.464844 C 867.71875 402.421875 872.386719 391.617188 878.292969 381.675781 C 892.644531 355.417969 912.796875 335.421875 940.464844 323.246094 C 952.734375 317.851562 965.003906 312.457031 977.199219 306.441406 C 986.578125 302.28125 995.035156 295.699219 1001.246094 287.238281 C 1005.335938 281.183594 1009.816406 275.207031 1014.296875 269.230469 C 1023.023438 257.433594 1030.585938 244.386719 1042.953125 235.566406 C 1050.628906 229.839844 1058.375 224.734375 1066.203125 219.242188 C 1067.613281 218.3125 1069.101562 216.996094 1070.355469 215.835938 C 1070.832031 214.511719 1070.683594 213.265625 1070.066406 212.328125 C 1069.605469 211.625 1068.046875 211.304688 1067.1875 211.535156 C 1066.09375 211.921875 1065.15625 212.539062 1064.214844 213.15625 C 1057.40625 217.640625 1050.363281 222.28125 1043.628906 227.390625 C 1034.863281 233.5 1027.023438 241.019531 1020.886719 250.101562 C 1015.847656 257.789062 1010.117188 264.929688 1004.691406 272.535156 C 996.667969 283.867188 988.183594 294.5 975.367188 300.589844 C 968.175781 303.984375 960.902344 307.765625 953.554688 310.921875 C 941.757812 316.007812 929.726562 320.234375 918.539062 327.269531 C 912.039062 332.222656 905.304688 337.332031 899.265625 342.988281 Z M 1090.65625 222.628906 C 1089.328125 223.167969 1087.917969 224.097656 1086.511719 225.023438 C 1079.460938 230.675781 1072.566406 236.5625 1065.75 242.058594 C 1052.355469 252.902344 1039.113281 263.976562 1028.660156 278.257812 C 1016.714844 293.855469 1002.910156 307.652344 987.09375 319.417969 C 963.757812 337.140625 942.742188 357.371094 922.039062 378.066406 C 909.488281 390.703125 900.039062 406.003906 890.828125 421.144531 C 883.660156 433.261719 875.402344 444.75 865.90625 455.375 C 858.761719 463.441406 852.164062 471.824219 845.019531 479.886719 C 837.011719 489.195312 829.085938 498.117188 820.613281 506.722656 C 810.890625 516.488281 800.855469 525.789062 790.976562 535.320312 C 775.761719 550.046875 761.09375 565.085938 744.414062 578.09375 C 732.582031 588.238281 721.285156 599.710938 711.542969 612.519531 C 709.972656 614.222656 708.476562 616.554688 710.722656 618.433594 C 712.972656 620.3125 714.777344 618.453125 716.347656 616.746094 C 716.976562 615.660156 717.996094 614.652344 719.015625 613.644531 C 727.566406 604.648438 735.730469 595.574219 744.589844 587.050781 C 750.707031 581.003906 758.21875 576.054688 764.570312 569.855469 C 780.488281 554.664062 795.941406 538.769531 812.167969 524.050781 C 828.625 509.171875 843.769531 492.8125 857.367188 475.117188 C 859.566406 472.324219 861.765625 469.53125 864.355469 466.816406 C 877.613281 452.707031 889.324219 437.261719 898.859375 420.5625 C 907.050781 406.425781 916.722656 392.996094 928.097656 381.132812 C 950.136719 358.886719 973.574219 337.734375 998.480469 318.304688 C 1011.324219 308.160156 1023.089844 296.378906 1033.070312 283.417969 C 1039.667969 275.039062 1046.730469 267.359375 1054.492188 260.230469 C 1064.289062 251.089844 1074.941406 242.726562 1085.285156 233.898438 C 1087.949219 231.808594 1090.765625 229.949219 1093.121094 227.390625 C 1093.902344 226.539062 1094.070312 224.75 1095.105469 221.714844 C 1093.386719 222.175781 1091.75 222.246094 1090.65625 222.628906 Z M 1090.65625 222.628906 "/>
</g>
</g>
</g>
</g>
</svg>
