<?xml version="1.0" encoding="UTF-8"?>
<svg xmlns="http://www.w3.org/2000/svg" xmlns:xlink="http://www.w3.org/1999/xlink" width="1012.5pt" height="487.499991pt" viewBox="0 0 1012.5 487.499991" version="1.2">
<defs>
<clipPath id="clip1">
  <path d="M 49 148.347656 L 367 148.347656 L 367 338 L 49 338 Z M 49 148.347656 "/>
</clipPath>
<clipPath id="clip2">
  <path d="M 451 0 L 1011.730469 0 L 1011.730469 487 L 451 487 Z M 451 0 "/>
</clipPath>
<clipPath id="clip3">
  <path d="M 1251.273438 -24.875 L 1004.003906 700.214844 L 451.316406 511.734375 L 698.589844 -213.351562 Z M 1251.273438 -24.875 "/>
</clipPath>
</defs>
<g id="surface1">
<g clip-path="url(#clip1)" clip-rule="nonzero">
<path style=" stroke:none;fill-rule:nonzero;fill:rgb(100%,76.858521%,23.919678%);fill-opacity:1;" d="M 52.125 159.882812 L 52.125 177.785156 L 364.507812 168.867188 L 364.507812 148.347656 Z M 52.125 204.421875 L 52.125 217.421875 C 62.390625 218.695312 338.230469 205.441406 352.007812 204.421875 C 365.78125 203.402344 363.867188 193.144531 352.007812 193.144531 C 340.144531 193.144531 52.125 204.421875 52.125 204.421875 Z M 49.191406 246.734375 L 55.566406 258.902344 C 55.566406 258.902344 172.535156 252.023438 215.457031 246.734375 C 258.378906 241.445312 325.027344 239.339844 341.417969 236.664062 C 357.808594 233.988281 361.574219 232.96875 361.574219 232.96875 L 357.808594 221.308594 C 357.808594 221.308594 201.617188 237.175781 152.382812 240.105469 C 103.144531 243.035156 49.191406 246.734375 49.191406 246.734375 Z M 49.191406 290.128906 L 52.125 300.703125 C 52.125 300.703125 201.171875 301.789062 233.445312 300.703125 C 265.714844 299.621094 364.507812 295.671875 364.507812 295.671875 C 364.507812 295.671875 366.355469 292.804688 366.867188 287.515625 C 367.375 282.226562 364.507812 281.714844 364.507812 281.714844 C 364.507812 281.714844 102.125 288.535156 82.546875 288.535156 C 71.386719 288.46875 60.289062 289.042969 49.191406 290.128906 Z M 56.589844 331.355469 C 56.589844 331.355469 51.804688 338.746094 83.054688 336.644531 C 114.308594 334.539062 361.574219 322.371094 361.574219 322.371094 L 364.441406 313.894531 Z M 56.589844 331.355469 "/>
</g>
<g clip-path="url(#clip2)" clip-rule="nonzero">
<g clip-path="url(#clip3)" clip-rule="nonzero">
<path style=" stroke:none;fill-rule:nonzero;fill:rgb(93.728638%,27.839661%,43.528748%);fill-opacity:1;" d="M 1251.273438 -24.875 L 1004.003906 700.214844 L 451.316406 511.734375 L 698.589844 -213.351562 Z M 1251.273438 -24.875 "/>
</g>
</g>
</g>
</svg>
