<?xml version="1.0" encoding="UTF-8"?>
<svg xmlns="http://www.w3.org/2000/svg" xmlns:xlink="http://www.w3.org/1999/xlink" width="1012.5pt" height="487.499991pt" viewBox="0 0 1012.5 487.499991" version="1.2">
<defs>
<clipPath id="clip1">
  <path d="M 0.304688 280 L 219 280 L 219 487 L 0.304688 487 Z M 0.304688 280 "/>
</clipPath>
<clipPath id="clip2">
  <path d="M 800.082031 0 L 1011.730469 0 L 1011.730469 202.179688 L 800.082031 202.179688 Z M 800.082031 0 "/>
</clipPath>
</defs>
<g id="surface1">
<g clip-path="url(#clip1)" clip-rule="nonzero">
<path style=" stroke:none;fill-rule:evenodd;fill:rgb(100%,76.858521%,23.919678%);fill-opacity:1;" d="M 82.820312 294.667969 C 82.195312 294.867188 81.636719 294.9375 81.195312 294.917969 C 79.894531 294.863281 78.875 294.328125 78.101562 293.394531 C 77.503906 292.671875 76.679688 291.15625 77.351562 288.472656 C 77.902344 286.261719 79.148438 285.136719 80.425781 284.542969 C 80.511719 284.503906 80.59375 284.46875 80.675781 284.433594 C 81.371094 283.191406 82.507812 282.007812 84.226562 281.023438 C 88.066406 278.832031 90.242188 280.734375 90.867188 281.566406 C 91.394531 282.261719 91.785156 283.210938 91.671875 284.460938 C 91.628906 284.9375 91.410156 285.671875 90.996094 286.527344 C 91.917969 287.988281 91.746094 289.945312 90.472656 291.214844 C 89.890625 291.796875 89.316406 292.257812 88.757812 292.625 C 88.097656 293.71875 86.835938 294.789062 84.351562 294.910156 C 83.816406 294.9375 83.296875 294.851562 82.820312 294.667969 Z M 77.882812 291.296875 C 78.078125 291.433594 78.207031 291.628906 78.339844 291.824219 C 78.117188 291.867188 77.898438 291.910156 77.675781 291.953125 C 77.722656 291.753906 77.773438 291.558594 77.882812 291.296875 Z M 194.976562 316.042969 C 190.960938 317.839844 187.273438 317.382812 184.601562 314.089844 C 183.316406 312.503906 183.527344 310.191406 185.054688 308.863281 C 185.085938 308.25 185.207031 307.609375 185.417969 306.957031 C 186.359375 304.03125 189.867188 300.316406 193.660156 297.890625 C 194.164062 297.566406 194.671875 297.265625 195.175781 296.992188 C 197.996094 293.671875 202.21875 291.613281 207.675781 293.429688 C 208.824219 293.8125 209.558594 294.546875 210.007812 295.5 C 210.371094 296.273438 210.382812 297.832031 210.144531 298.777344 C 209.746094 300.378906 208.351562 303.078125 206.277344 305.886719 C 205.410156 307.066406 204.425781 308.265625 203.371094 309.417969 C 203.128906 309.769531 202.886719 310.09375 202.648438 310.390625 C 201.382812 311.976562 200.144531 312.964844 199.019531 313.550781 C 198.488281 315.003906 197.09375 316.046875 195.457031 316.046875 C 195.296875 316.046875 195.136719 316.046875 194.976562 316.042969 Z M 133.660156 304.480469 C 133.773438 304.425781 133.882812 304.378906 133.996094 304.332031 C 135.457031 303.742188 136.886719 303.644531 138.230469 304.019531 C 139.535156 304.382812 140.84375 305.195312 141.933594 306.835938 C 143.136719 308.632812 143.484375 311.09375 142.847656 313.789062 C 142.171875 316.65625 140.363281 319.875 138.226562 322.261719 C 136.609375 324.066406 134.785156 325.382812 133.171875 325.976562 C 131.308594 326.664062 129.566406 326.558594 128.085938 325.820312 C 126.769531 325.164062 125.910156 324.203125 125.476562 322.992188 C 125.300781 322.960938 125.132812 322.925781 124.96875 322.878906 C 123.660156 322.523438 122.640625 321.820312 121.902344 320.820312 C 121.257812 319.941406 120.796875 318.785156 120.796875 317.246094 C 120.796875 314.519531 121.886719 312.007812 123.667969 309.925781 C 125.996094 307.207031 129.527344 305.28125 132.625 304.644531 C 132.976562 304.574219 133.320312 304.519531 133.660156 304.480469 Z M 198.601562 306.375 C 198.929688 306.558594 199.132812 306.746094 199.339844 306.929688 C 199.136719 306.992188 198.925781 307.121094 198.734375 307.09375 C 198.449219 307.054688 198.183594 306.898438 197.910156 306.789062 C 198.097656 306.652344 198.285156 306.511719 198.601562 306.375 Z M 139.074219 311.847656 C 139.339844 311.839844 139.542969 311.898438 139.75 311.949219 C 139.679688 312.058594 139.609375 312.171875 139.539062 312.28125 C 139.359375 312.15625 139.1875 312.035156 139.074219 311.847656 Z M 15.25 321.847656 C 15.613281 322.054688 15.949219 322.296875 16.257812 322.582031 C 18.683594 324.785156 19.8125 331.179688 13.449219 334.996094 C 12.035156 335.84375 10.625 336.691406 9.210938 337.539062 C 6.019531 339.453125 3.835938 338.910156 2.714844 338.253906 C 1.441406 337.507812 0.441406 336.160156 0.371094 334.039062 C 0.3125 332.453125 1.03125 329.820312 2.214844 327.15625 C 3.796875 323.597656 6.101562 319.949219 7.136719 318.917969 C 8.496094 317.554688 9.457031 316.976562 9.945312 316.773438 C 10.792969 316.421875 11.5 316.410156 12.03125 316.476562 C 13.421875 316.648438 14.398438 317.363281 15.011719 318.539062 C 15.320312 319.125 15.710938 320.273438 15.25 321.847656 Z M 15.460938 324.523438 C 15.40625 324.292969 15.410156 324.125 15.414062 323.957031 C 15.527344 323.996094 15.640625 324.039062 15.753906 324.078125 C 15.679688 324.25 15.601562 324.417969 15.460938 324.523438 Z M 81.246094 333.753906 C 81.289062 333.933594 81.324219 334.117188 81.351562 334.3125 C 81.4375 334.917969 81.40625 335.746094 81.050781 336.710938 C 80.761719 337.507812 80.121094 338.632812 79.171875 339.84375 C 77.324219 342.214844 74.234375 344.984375 71.425781 346.421875 C 71.160156 346.621094 70.886719 346.816406 70.617188 347.007812 C 66.703125 349.757812 62.371094 351.835938 59.386719 352.496094 C 57.179688 352.984375 55.398438 352.722656 54.253906 352.152344 C 53.164062 351.609375 52.121094 350.582031 52.109375 348.667969 C 52.109375 348.242188 52.195312 347.550781 52.507812 346.75 C 52.652344 346.371094 52.875 345.914062 53.113281 345.464844 C 53.234375 344.621094 53.507812 343.722656 53.96875 342.773438 C 55.757812 339.082031 60.996094 333.949219 65.972656 330.722656 C 68.050781 329.371094 70.089844 328.347656 71.789062 327.8125 C 73.484375 327.277344 74.980469 327.207031 76.136719 327.445312 C 78.035156 327.839844 79.4375 328.890625 80.15625 330.761719 C 80.917969 331.527344 81.347656 332.609375 81.246094 333.753906 Z M 70.496094 334.125 C 70.726562 333.988281 70.898438 333.910156 71.070312 333.835938 C 71.136719 334.082031 71.296875 334.347656 71.246094 334.566406 C 71.210938 334.71875 70.890625 334.808594 70.699219 334.925781 C 70.609375 334.675781 70.523438 334.429688 70.496094 334.125 Z M 63.476562 341.507812 C 63.414062 341.898438 63.285156 342.226562 63.160156 342.554688 C 62.839844 342.355469 62.40625 342.222656 62.242188 341.933594 C 62.117188 341.71875 62.339844 341.304688 62.40625 340.976562 C 62.742188 341.132812 63.078125 341.289062 63.476562 341.507812 Z M 58.984375 343.046875 C 59.175781 342.800781 59.363281 342.664062 59.566406 342.558594 C 59.84375 342.410156 60.136719 342.28125 60.421875 342.144531 C 60.21875 342.535156 60.070312 342.972656 59.785156 343.296875 C 59.691406 343.40625 59.261719 343.21875 58.984375 343.046875 Z M 58.246094 345.753906 C 58.351562 345.589844 58.464844 345.5 58.558594 345.515625 C 58.867188 345.574219 59.175781 345.664062 59.46875 345.773438 C 59.496094 345.785156 59.417969 346.058594 59.390625 346.207031 C 59.007812 346.097656 58.625 345.984375 58.246094 345.753906 Z M 67.109375 346.246094 C 66.808594 346.316406 66.507812 346.257812 66.207031 346.203125 C 66.265625 346.09375 66.34375 345.875 66.375 345.882812 C 66.625 345.9375 66.867188 346.039062 67.109375 346.246094 Z M 183.3125 361.714844 C 183.265625 362.460938 183.097656 363.257812 182.800781 364.097656 C 181.703125 367.160156 178.5 371.292969 175.390625 374.246094 C 173.03125 376.484375 170.660156 378 169.289062 378.390625 C 168.140625 378.71875 167.082031 378.714844 166.078125 378.53125 C 162.855469 380.269531 157.203125 379.179688 160.097656 374.515625 C 159.484375 374.097656 158.933594 373.585938 158.632812 372.984375 C 157.523438 370.769531 157.640625 368.335938 158.878906 365.980469 C 159.152344 366.085938 159.433594 366.1875 159.757812 366.242188 C 159.644531 365.933594 159.472656 365.691406 159.304688 365.445312 L 159.074219 365.625 C 159.46875 364.9375 159.957031 364.261719 160.539062 363.601562 C 163.398438 360.34375 168.707031 357.367188 172.804688 356.09375 C 173.128906 356.160156 173.414062 356.140625 173.585938 355.867188 C 175.476562 355.367188 177.121094 355.253906 178.230469 355.441406 C 180.320312 355.789062 181.589844 356.777344 182.375 357.9375 C 183.03125 358.902344 183.390625 360.144531 183.320312 361.585938 C 183.257812 361.617188 183.203125 361.652344 183.148438 361.691406 C 183.207031 361.699219 183.261719 361.707031 183.3125 361.714844 Z M 177.730469 357.875 C 177.984375 358.03125 178.171875 358.253906 178.363281 358.472656 C 178.222656 358.546875 178.082031 358.625 177.941406 358.699219 C 177.851562 358.445312 177.757812 358.191406 177.730469 357.875 Z M 118.042969 365.800781 C 119.289062 366.175781 120.191406 366.914062 120.789062 367.8125 C 123.351562 371.652344 122.523438 375.691406 119.882812 379.210938 C 117.832031 381.9375 114.605469 384.257812 112.101562 385.660156 C 110.9375 386.980469 109.804688 387.789062 108.613281 388.261719 C 106.683594 389.027344 104.425781 389.078125 101.273438 388.382812 C 100.207031 388.148438 99.34375 387.484375 98.828125 386.609375 C 97.542969 385.863281 96.382812 384.621094 95.6875 382.535156 C 95.113281 380.820312 95.414062 378.566406 97.101562 376.277344 C 97.386719 375.890625 97.71875 375.492188 98.09375 375.085938 C 98.164062 375.117188 98.285156 375.15625 98.363281 375.1875 C 98.363281 375.058594 98.367188 374.929688 98.367188 374.800781 C 100.746094 372.335938 104.554688 369.699219 108.171875 367.914062 C 111.402344 366.316406 114.515625 365.457031 116.433594 365.539062 C 116.664062 365.546875 116.882812 365.570312 117.097656 365.597656 C 117.039062 365.699219 117.003906 365.839844 116.910156 365.996094 C 117.503906 366.835938 117.753906 366.1875 118.042969 365.800781 Z M 177.667969 367.902344 C 177.914062 368.007812 178.039062 368.109375 178.164062 368.210938 C 178 368.273438 177.839844 368.335938 177.675781 368.398438 C 177.632812 368.234375 177.589844 368.070312 177.667969 367.902344 Z M 174.285156 370.304688 C 174.464844 369.792969 174.703125 369.339844 174.945312 368.890625 C 175.113281 369.03125 175.285156 369.171875 175.453125 369.316406 C 175.085938 369.664062 174.714844 370.015625 174.285156 370.304688 Z M 117.15625 380.640625 C 116.964844 380.941406 116.710938 381.179688 116.457031 381.417969 C 116.339844 381.226562 116.226562 381.035156 116.113281 380.839844 C 116.4375 380.753906 116.765625 380.667969 117.15625 380.640625 Z M 14.707031 408.945312 C 14.199219 409.226562 13.710938 409.484375 13.246094 409.714844 C 11.265625 410.695312 9.570312 411.121094 8.601562 411.121094 C 8.359375 411.121094 8.125 411.101562 7.902344 411.054688 C 6.273438 411.097656 4.824219 410.675781 3.660156 409.828125 C 2.4375 408.941406 1.386719 407.542969 0.9375 405.292969 C 0.566406 403.4375 0.917969 401.5625 1.957031 399.757812 C 3.039062 397.886719 4.984375 396.039062 7.433594 394.488281 C 11.167969 392.121094 16.066406 390.386719 19.785156 389.921875 C 21.851562 389.664062 23.632812 389.804688 24.902344 390.230469 C 26.027344 390.601562 27.171875 391.554688 27.636719 393.199219 C 27.746094 393.578125 27.796875 394.019531 27.820312 394.453125 C 27.941406 394.792969 28.015625 395.164062 28.035156 395.542969 C 28.070312 396.351562 27.898438 397.328125 27.34375 398.386719 C 26.828125 399.382812 25.816406 400.632812 24.445312 401.9375 C 22.4375 404.382812 19.792969 406.828125 17.246094 408.0625 C 16.382812 408.480469 15.53125 408.773438 14.707031 408.945312 Z M 217.058594 397.933594 C 217.148438 398.003906 217.230469 398.078125 217.308594 398.148438 C 218.363281 399.128906 219.183594 400.824219 218.238281 403.132812 C 217.503906 404.941406 214.257812 408.496094 212.230469 410.121094 C 207.648438 413.78125 203.839844 413.195312 201.703125 411.628906 C 199.539062 412.25 197.84375 411.507812 197.023438 410.6875 C 195.511719 409.171875 195.105469 407.210938 196.152344 404.949219 C 196.632812 403.90625 197.605469 402.667969 198.851562 401.5 C 199.722656 400.6875 200.730469 399.886719 201.640625 399.203125 C 202.28125 398.351562 203.0625 397.511719 203.988281 396.699219 C 206.742188 394.292969 211.378906 391.285156 213.050781 390.882812 C 214.933594 390.433594 216.207031 391.128906 216.929688 391.777344 C 217.757812 392.523438 218.441406 393.617188 218.214844 395.332031 C 218.152344 395.792969 217.867188 396.667969 217.058594 397.933594 Z M 16.570312 399.960938 C 16.519531 400.378906 16.410156 400.738281 16.296875 401.097656 C 16.164062 400.972656 15.898438 400.828125 15.914062 400.734375 C 15.976562 400.367188 16.132812 400.019531 16.25 399.664062 C 16.335938 399.746094 16.421875 399.824219 16.570312 399.960938 Z M 11.707031 401.621094 C 11.742188 401.953125 11.65625 402.28125 11.566406 402.609375 C 11.460938 402.578125 11.351562 402.546875 11.246094 402.515625 C 11.359375 402.21875 11.46875 401.921875 11.707031 401.621094 Z M 12.199219 403.839844 C 12.445312 403.941406 12.570312 404.042969 12.691406 404.144531 C 12.527344 404.207031 12.367188 404.269531 12.203125 404.332031 C 12.160156 404.167969 12.117188 404.003906 12.199219 403.839844 Z M 214.113281 404.578125 C 214.199219 404.824219 214.160156 405.070312 214.121094 405.316406 C 213.890625 405.207031 213.65625 405.101562 213.421875 404.992188 C 213.609375 404.855469 213.800781 404.714844 214.113281 404.578125 Z M 13.429688 405.808594 C 13.597656 405.605469 13.761719 405.523438 13.925781 405.441406 C 13.976562 405.554688 14.03125 405.664062 14.082031 405.773438 C 13.863281 405.828125 13.648438 405.878906 13.429688 405.808594 Z M 204.816406 406.117188 C 204.59375 406.171875 204.425781 406.164062 204.265625 406.160156 C 204.464844 405.960938 204.660156 405.761719 204.863281 405.5625 C 204.867188 405.726562 204.875 405.890625 204.816406 406.117188 Z M 213.4375 408.207031 C 213.460938 408.0625 213.53125 407.953125 213.632812 407.898438 C 213.84375 407.78125 214.074219 407.6875 214.292969 407.585938 C 214.3125 407.695312 214.367188 407.886719 214.339844 407.902344 C 214.066406 408.039062 213.78125 408.152344 213.4375 408.207031 Z M 10.289062 407.839844 C 10.589844 408.152344 10.25 409.808594 9.878906 409.953125 C 9.773438 409.996094 9.554688 409.925781 9.480469 409.835938 C 9.367188 409.707031 9.242188 409.453125 9.296875 409.351562 C 9.574219 408.847656 9.914062 408.378906 10.289062 407.839844 Z M 11.214844 409.746094 C 11.445312 409.335938 11.679688 409.046875 11.910156 408.761719 C 12.007812 408.933594 12.226562 409.175781 12.175781 409.261719 C 11.933594 409.6875 11.617188 410.074219 11.324219 410.472656 C 11.289062 410.269531 11.25 410.070312 11.214844 409.746094 Z M 154.527344 420.242188 C 155.242188 422.195312 155.339844 424.507812 154.808594 426.996094 C 153.851562 431.492188 150.800781 436.675781 147.210938 440.257812 C 144.484375 442.972656 141.421875 444.738281 138.757812 445.121094 C 136.210938 445.488281 133.875 444.832031 131.957031 442.910156 C 129.824219 440.78125 129.207031 437.34375 130.472656 433.289062 C 132.460938 426.910156 139.21875 418.488281 144.085938 415.097656 C 147.191406 412.929688 150.066406 412.792969 151.695312 413.582031 C 153.21875 414.324219 154.699219 415.890625 154.699219 419.105469 C 154.699219 419.5 154.640625 419.882812 154.527344 420.242188 Z M 80.644531 436.394531 C 75.902344 440.082031 70.152344 443.367188 66.113281 444.535156 C 62.996094 445.4375 60.5 445.042969 59.046875 444.078125 C 55.945312 442.011719 55.390625 437.832031 58.925781 433.089844 C 59.257812 432.648438 59.625 432.191406 60.023438 431.730469 L 60.070312 431.878906 C 60.367188 431.761719 60.660156 431.644531 60.890625 431.46875 C 60.636719 431.460938 60.417969 431.488281 60.207031 431.523438 C 63.402344 427.894531 68.519531 423.847656 73.273438 421.066406 C 77.386719 418.664062 81.324219 417.296875 83.753906 417.371094 C 85.488281 417.421875 86.824219 418.027344 87.785156 418.9375 C 88.339844 419.457031 88.8125 420.101562 89.121094 420.910156 C 89.28125 421.136719 89.417969 421.386719 89.527344 421.65625 C 90.109375 423.085938 90.132812 424.875 89.269531 426.867188 C 88.214844 429.292969 85.453125 432.449219 81.882812 435.402344 C 81.550781 435.675781 81.214844 435.949219 80.871094 436.21875 L 80.828125 436.132812 C 80.765625 436.21875 80.703125 436.304688 80.644531 436.394531 Z M 81.824219 421.128906 C 81.878906 420.871094 81.949219 420.585938 82.125 420.492188 C 82.320312 420.386719 82.625 420.390625 82.847656 420.460938 C 82.972656 420.5 83.128906 420.882812 83.097656 420.910156 C 82.90625 421.078125 82.675781 421.234375 82.433594 421.296875 C 82.269531 421.339844 82.070312 421.230469 81.824219 421.128906 Z M 68.976562 433.449219 C 69.277344 433.320312 69.507812 433.210938 69.585938 433.175781 C 69.6875 433.03125 69.835938 432.820312 70.03125 432.546875 C 69.671875 432.84375 69.320312 433.148438 68.976562 433.449219 Z M 66.617188 434.359375 C 66.785156 434.644531 66.828125 434.925781 66.871094 435.210938 C 66.703125 435.210938 66.53125 435.210938 66.363281 435.210938 C 66.40625 434.925781 66.449219 434.644531 66.617188 434.359375 Z M 58.800781 436.390625 C 59.0625 436.363281 59.261719 436.402344 59.460938 436.433594 C 59.324219 436.644531 59.183594 436.855469 59.046875 437.066406 C 58.941406 436.859375 58.839844 436.65625 58.800781 436.390625 Z M 76.898438 436.636719 C 76.707031 436.773438 76.457031 436.855469 76.203125 436.914062 C 76.1875 436.917969 76.125 436.703125 76.082031 436.585938 C 76.335938 436.582031 76.585938 436.578125 76.898438 436.636719 Z M 64.09375 440.203125 C 63.699219 440.261719 63.367188 440.253906 63.035156 440.25 C 63.074219 440.136719 63.132812 439.921875 63.152344 439.925781 C 63.492188 439.980469 63.820312 440.066406 64.09375 440.203125 Z M 95.257812 470.566406 C 96.53125 469.140625 98.105469 467.949219 99.957031 467.210938 C 102.480469 466.199219 104.832031 466.847656 106.242188 468.097656 C 107.8125 469.492188 108.828125 471.871094 107.285156 474.949219 C 107.210938 475.097656 106.894531 475.585938 106.441406 476.234375 C 107.054688 477.527344 107.207031 479.539062 104.882812 481.863281 C 104.320312 482.425781 103.753906 482.992188 103.183594 483.558594 C 101.402344 485.339844 99.761719 486.21875 98.363281 486.574219 C 97.765625 486.976562 97.046875 487.207031 96.277344 487.207031 C 92.894531 487.207031 91.585938 485.589844 91.097656 484.621094 C 90.496094 483.433594 90.339844 481.867188 91.410156 480.183594 C 91.417969 478.828125 91.671875 477.28125 92.222656 475.714844 C 92.832031 473.996094 93.792969 472.269531 95.074219 470.777344 C 95.222656 471.117188 95.390625 471.484375 95.640625 471.550781 C 95.980469 471.644531 96.417969 471.363281 96.8125 471.242188 C 96.652344 471.007812 96.53125 470.628906 96.320312 470.570312 C 95.996094 470.480469 95.640625 470.515625 95.257812 470.566406 Z M 97.335938 474.539062 C 97.421875 474.820312 97.449219 475.042969 97.472656 475.261719 C 97.332031 475.253906 97.109375 475.296875 97.066406 475.230469 C 96.929688 475.003906 96.863281 474.738281 96.769531 474.488281 C 96.933594 474.484375 97.105469 474.480469 97.335938 474.539062 "/>
</g>
<g clip-path="url(#clip2)" clip-rule="nonzero">
<path style=" stroke:none;fill-rule:evenodd;fill:rgb(93.728638%,27.839661%,43.528748%);fill-opacity:1;" d="M 880.058594 15.15625 C 879.449219 15.347656 878.910156 15.414062 878.484375 15.398438 C 877.222656 15.34375 876.230469 14.824219 875.480469 13.917969 C 874.90625 13.214844 874.105469 11.746094 874.753906 9.136719 C 875.292969 6.992188 876.496094 5.898438 877.734375 5.320312 C 877.816406 5.28125 877.898438 5.246094 877.976562 5.214844 C 878.652344 4.007812 879.753906 2.859375 881.421875 1.90625 C 885.140625 -0.226562 887.25 1.621094 887.855469 2.429688 C 888.367188 3.105469 888.746094 4.027344 888.632812 5.238281 C 888.59375 5.707031 888.378906 6.417969 887.980469 7.246094 C 888.875 8.664062 888.707031 10.566406 887.472656 11.800781 C 886.910156 12.363281 886.351562 12.816406 885.808594 13.167969 C 885.171875 14.230469 883.949219 15.273438 881.542969 15.390625 C 881.019531 15.414062 880.519531 15.332031 880.058594 15.15625 Z M 875.269531 11.882812 C 875.457031 12.011719 875.585938 12.203125 875.714844 12.394531 C 875.5 12.433594 875.285156 12.476562 875.070312 12.519531 C 875.117188 12.324219 875.164062 12.132812 875.269531 11.882812 Z M 988.757812 35.914062 C 984.863281 37.660156 981.289062 37.21875 978.699219 34.019531 C 977.453125 32.480469 977.660156 30.230469 979.140625 28.941406 C 979.167969 28.34375 979.285156 27.726562 979.492188 27.089844 C 980.402344 24.25 983.804688 20.640625 987.480469 18.285156 C 987.96875 17.96875 988.460938 17.679688 988.949219 17.414062 C 991.683594 14.1875 995.773438 12.1875 1001.0625 13.953125 C 1002.175781 14.324219 1002.886719 15.039062 1003.324219 15.964844 C 1003.675781 16.714844 1003.6875 18.226562 1003.457031 19.144531 C 1003.070312 20.703125 1001.714844 23.320312 999.707031 26.050781 C 998.867188 27.195312 997.914062 28.359375 996.890625 29.476562 C 996.65625 29.820312 996.421875 30.136719 996.191406 30.425781 C 994.964844 31.964844 993.765625 32.925781 992.671875 33.492188 C 992.160156 34.90625 990.808594 35.917969 989.222656 35.917969 C 989.066406 35.917969 988.910156 35.917969 988.757812 35.914062 Z M 929.328125 24.683594 C 929.4375 24.632812 929.546875 24.585938 929.65625 24.542969 C 931.070312 23.964844 932.457031 23.875 933.757812 24.238281 C 935.023438 24.589844 936.289062 25.378906 937.347656 26.972656 C 938.511719 28.71875 938.851562 31.105469 938.234375 33.722656 C 937.578125 36.511719 935.824219 39.636719 933.753906 41.953125 C 932.1875 43.707031 930.421875 44.984375 928.859375 45.5625 C 927.050781 46.230469 925.359375 46.128906 923.925781 45.410156 C 922.652344 44.773438 921.816406 43.839844 921.398438 42.664062 C 921.230469 42.632812 921.066406 42.597656 920.90625 42.554688 C 919.640625 42.207031 918.648438 41.523438 917.933594 40.554688 C 917.308594 39.699219 916.863281 38.578125 916.863281 37.082031 C 916.863281 34.433594 917.921875 31.996094 919.644531 29.972656 C 921.898438 27.332031 925.324219 25.460938 928.324219 24.84375 C 928.664062 24.777344 929 24.722656 929.328125 24.683594 Z M 992.269531 26.523438 C 992.585938 26.703125 992.785156 26.882812 992.984375 27.0625 C 992.789062 27.121094 992.582031 27.25 992.398438 27.222656 C 992.121094 27.183594 991.863281 27.03125 991.597656 26.929688 C 991.78125 26.792969 991.964844 26.65625 992.269531 26.523438 Z M 934.574219 31.839844 C 934.832031 31.832031 935.03125 31.886719 935.230469 31.9375 C 935.164062 32.046875 935.09375 32.152344 935.027344 32.257812 C 934.855469 32.140625 934.6875 32.019531 934.574219 31.839844 Z M 814.566406 41.550781 C 814.917969 41.753906 815.246094 41.988281 815.546875 42.265625 C 817.894531 44.40625 818.992188 50.617188 812.824219 54.320312 C 811.453125 55.144531 810.085938 55.96875 808.714844 56.792969 C 805.621094 58.648438 803.503906 58.121094 802.421875 57.488281 C 801.183594 56.761719 800.214844 55.453125 800.148438 53.394531 C 800.09375 51.851562 800.789062 49.292969 801.933594 46.707031 C 803.46875 43.253906 805.699219 39.707031 806.703125 38.703125 C 808.023438 37.382812 808.953125 36.820312 809.425781 36.625 C 810.25 36.28125 810.933594 36.273438 811.449219 36.335938 C 812.796875 36.5 813.742188 37.195312 814.335938 38.339844 C 814.636719 38.90625 815.015625 40.023438 814.566406 41.550781 Z M 814.773438 44.152344 C 814.71875 43.929688 814.722656 43.765625 814.730469 43.601562 C 814.835938 43.640625 814.949219 43.679688 815.054688 43.71875 C 814.984375 43.882812 814.910156 44.046875 814.773438 44.152344 Z M 878.53125 53.117188 C 878.570312 53.289062 878.609375 53.46875 878.632812 53.65625 C 878.714844 54.246094 878.6875 55.050781 878.34375 55.988281 C 878.058594 56.761719 877.4375 57.855469 876.519531 59.03125 C 874.730469 61.332031 871.734375 64.019531 869.011719 65.421875 C 868.753906 65.613281 868.492188 65.804688 868.230469 65.988281 C 864.4375 68.660156 860.238281 70.679688 857.34375 71.320312 C 855.203125 71.792969 853.480469 71.539062 852.371094 70.984375 C 851.3125 70.457031 850.304688 69.457031 850.292969 67.597656 C 850.292969 67.1875 850.375 66.515625 850.675781 65.738281 C 850.820312 65.371094 851.03125 64.925781 851.265625 64.488281 C 851.382812 63.671875 851.648438 62.796875 852.09375 61.875 C 853.828125 58.292969 858.902344 53.304688 863.726562 50.171875 C 865.742188 48.859375 867.714844 47.867188 869.363281 47.34375 C 871.007812 46.828125 872.460938 46.757812 873.582031 46.988281 C 875.417969 47.371094 876.777344 48.394531 877.472656 50.210938 C 878.210938 50.953125 878.628906 52.003906 878.53125 53.117188 Z M 868.113281 53.476562 C 868.335938 53.34375 868.5 53.265625 868.667969 53.195312 C 868.734375 53.433594 868.886719 53.691406 868.839844 53.90625 C 868.804688 54.054688 868.496094 54.136719 868.308594 54.253906 C 868.222656 54.011719 868.136719 53.773438 868.113281 53.476562 Z M 861.308594 60.644531 C 861.246094 61.023438 861.125 61.34375 861 61.660156 C 860.691406 61.46875 860.273438 61.339844 860.113281 61.0625 C 859.992188 60.851562 860.207031 60.449219 860.273438 60.128906 C 860.597656 60.28125 860.925781 60.433594 861.308594 60.644531 Z M 856.957031 62.140625 C 857.140625 61.902344 857.320312 61.769531 857.519531 61.664062 C 857.789062 61.519531 858.070312 61.394531 858.347656 61.265625 C 858.152344 61.644531 858.007812 62.070312 857.734375 62.382812 C 857.640625 62.488281 857.222656 62.308594 856.957031 62.140625 Z M 856.238281 64.769531 C 856.339844 64.609375 856.449219 64.523438 856.539062 64.539062 C 856.839844 64.597656 857.140625 64.683594 857.425781 64.789062 C 857.449219 64.800781 857.378906 65.066406 857.351562 65.210938 C 856.980469 65.101562 856.609375 64.996094 856.238281 64.769531 Z M 864.828125 65.25 C 864.539062 65.316406 864.246094 65.261719 863.953125 65.207031 C 864.011719 65.097656 864.089844 64.890625 864.121094 64.894531 C 864.363281 64.949219 864.59375 65.046875 864.828125 65.25 Z M 977.453125 80.273438 C 977.40625 80.996094 977.246094 81.769531 976.953125 82.585938 C 975.894531 85.5625 972.785156 89.574219 969.773438 92.441406 C 967.484375 94.617188 965.1875 96.089844 963.859375 96.46875 C 962.746094 96.789062 961.71875 96.78125 960.75 96.605469 C 957.625 98.292969 952.148438 97.234375 954.953125 92.703125 C 954.359375 92.296875 953.824219 91.800781 953.53125 91.21875 C 952.457031 89.066406 952.570312 86.703125 953.769531 84.414062 C 954.035156 84.519531 954.308594 84.613281 954.621094 84.671875 C 954.515625 84.371094 954.347656 84.132812 954.183594 83.894531 L 953.960938 84.070312 C 954.34375 83.402344 954.816406 82.746094 955.378906 82.101562 C 958.152344 78.941406 963.296875 76.050781 967.269531 74.8125 C 967.582031 74.878906 967.855469 74.859375 968.023438 74.59375 C 969.859375 74.109375 971.449219 74 972.527344 74.179688 C 974.550781 74.515625 975.78125 75.476562 976.542969 76.601562 C 977.175781 77.539062 977.527344 78.746094 977.460938 80.144531 C 977.398438 80.175781 977.34375 80.210938 977.292969 80.246094 C 977.347656 80.257812 977.402344 80.265625 977.453125 80.273438 Z M 972.042969 76.542969 C 972.285156 76.695312 972.46875 76.910156 972.65625 77.125 C 972.519531 77.195312 972.382812 77.269531 972.242188 77.34375 C 972.15625 77.09375 972.070312 76.847656 972.042969 76.542969 Z M 914.191406 84.242188 C 915.402344 84.605469 916.277344 85.324219 916.855469 86.195312 C 919.339844 89.921875 918.539062 93.84375 915.976562 97.261719 C 913.988281 99.910156 910.859375 102.164062 908.4375 103.527344 C 907.308594 104.808594 906.210938 105.59375 905.050781 106.054688 C 903.183594 106.800781 900.996094 106.847656 897.941406 106.171875 C 896.90625 105.945312 896.070312 105.296875 895.570312 104.449219 C 894.328125 103.722656 893.199219 102.519531 892.527344 100.492188 C 891.972656 98.828125 892.261719 96.640625 893.898438 94.414062 C 894.171875 94.039062 894.496094 93.652344 894.859375 93.257812 C 894.929688 93.289062 895.046875 93.324219 895.117188 93.355469 C 895.121094 93.230469 895.125 93.105469 895.121094 92.980469 C 897.429688 90.589844 901.121094 88.027344 904.625 86.292969 C 907.757812 84.742188 910.773438 83.90625 912.632812 83.984375 C 912.855469 83.996094 913.070312 84.015625 913.277344 84.042969 C 913.222656 84.140625 913.1875 84.277344 913.09375 84.429688 C 913.671875 85.242188 913.914062 84.613281 914.191406 84.242188 Z M 971.984375 86.28125 C 972.222656 86.382812 972.34375 86.480469 972.460938 86.582031 C 972.300781 86.640625 972.144531 86.703125 971.988281 86.761719 C 971.945312 86.601562 971.90625 86.441406 971.984375 86.28125 Z M 968.703125 88.613281 C 968.875 88.117188 969.109375 87.679688 969.339844 87.238281 C 969.507812 87.378906 969.667969 87.515625 969.835938 87.652344 C 969.476562 87.992188 969.121094 88.332031 968.703125 88.613281 Z M 913.335938 98.652344 C 913.148438 98.945312 912.902344 99.175781 912.65625 99.410156 C 912.542969 99.222656 912.433594 99.035156 912.320312 98.847656 C 912.636719 98.761719 912.957031 98.679688 913.335938 98.652344 Z M 814.042969 126.140625 C 813.550781 126.417969 813.078125 126.667969 812.628906 126.890625 C 810.707031 127.839844 809.066406 128.257812 808.125 128.257812 C 807.890625 128.257812 807.664062 128.238281 807.445312 128.191406 C 805.871094 128.230469 804.464844 127.824219 803.335938 127.003906 C 802.152344 126.136719 801.132812 124.78125 800.695312 122.597656 C 800.339844 120.796875 800.675781 118.972656 801.683594 117.21875 C 802.734375 115.402344 804.621094 113.609375 806.992188 112.101562 C 810.613281 109.804688 815.359375 108.117188 818.964844 107.667969 C 820.964844 107.414062 822.695312 107.554688 823.925781 107.96875 C 825.011719 108.328125 826.125 109.253906 826.574219 110.851562 C 826.679688 111.21875 826.730469 111.644531 826.75 112.066406 C 826.867188 112.398438 826.941406 112.757812 826.960938 113.128906 C 826.996094 113.910156 826.828125 114.863281 826.289062 115.890625 C 825.789062 116.855469 824.8125 118.070312 823.480469 119.339844 C 821.535156 121.714844 818.96875 124.085938 816.503906 125.285156 C 815.667969 125.691406 814.84375 125.976562 814.042969 126.140625 Z M 1010.15625 115.449219 C 1010.246094 115.515625 1010.324219 115.585938 1010.398438 115.65625 C 1011.421875 116.609375 1012.214844 118.257812 1011.300781 120.496094 C 1010.589844 122.253906 1007.441406 125.707031 1005.476562 127.285156 C 1001.039062 130.839844 997.347656 130.273438 995.277344 128.75 C 993.179688 129.355469 991.535156 128.628906 990.738281 127.835938 C 989.273438 126.363281 988.882812 124.457031 989.894531 122.261719 C 990.359375 121.25 991.300781 120.046875 992.511719 118.914062 C 993.355469 118.121094 994.332031 117.34375 995.214844 116.679688 C 995.835938 115.855469 996.589844 115.039062 997.488281 114.25 C 1000.160156 111.910156 1004.652344 108.988281 1006.273438 108.601562 C 1008.097656 108.164062 1009.332031 108.839844 1010.035156 109.46875 C 1010.835938 110.191406 1011.496094 111.257812 1011.277344 112.921875 C 1011.21875 113.367188 1010.941406 114.21875 1010.15625 115.449219 Z M 815.847656 117.417969 C 815.800781 117.824219 815.691406 118.171875 815.582031 118.519531 C 815.453125 118.402344 815.195312 118.261719 815.214844 118.167969 C 815.273438 117.8125 815.421875 117.472656 815.539062 117.128906 C 815.621094 117.207031 815.707031 117.285156 815.847656 117.417969 Z M 811.132812 119.03125 C 811.167969 119.351562 811.085938 119.667969 811 119.988281 C 810.898438 119.957031 810.792969 119.929688 810.6875 119.898438 C 810.796875 119.609375 810.90625 119.320312 811.132812 119.03125 Z M 811.613281 121.183594 C 811.851562 121.28125 811.96875 121.382812 812.089844 121.480469 C 811.929688 121.539062 811.773438 121.601562 811.617188 121.660156 C 811.574219 121.503906 811.535156 121.34375 811.613281 121.183594 Z M 1007.304688 121.902344 C 1007.382812 122.140625 1007.347656 122.378906 1007.3125 122.617188 C 1007.085938 122.511719 1006.859375 122.410156 1006.632812 122.304688 C 1006.816406 122.167969 1007 122.035156 1007.304688 121.902344 Z M 812.804688 123.097656 C 812.964844 122.898438 813.125 122.820312 813.285156 122.742188 C 813.335938 122.847656 813.386719 122.957031 813.4375 123.0625 C 813.226562 123.113281 813.015625 123.164062 812.804688 123.097656 Z M 998.292969 123.394531 C 998.074219 123.449219 997.914062 123.445312 997.757812 123.4375 C 997.949219 123.242188 998.144531 123.050781 998.335938 122.855469 C 998.34375 123.015625 998.347656 123.175781 998.292969 123.394531 Z M 1006.644531 125.425781 C 1006.667969 125.285156 1006.738281 125.179688 1006.835938 125.125 C 1007.042969 125.011719 1007.265625 124.921875 1007.476562 124.824219 C 1007.496094 124.929688 1007.550781 125.113281 1007.523438 125.128906 C 1007.257812 125.265625 1006.980469 125.371094 1006.644531 125.425781 Z M 809.761719 125.070312 C 810.054688 125.375 809.722656 126.984375 809.363281 127.125 C 809.261719 127.164062 809.050781 127.097656 808.976562 127.007812 C 808.867188 126.882812 808.746094 126.636719 808.800781 126.535156 C 809.066406 126.046875 809.394531 125.59375 809.761719 125.070312 Z M 810.65625 126.921875 C 810.882812 126.523438 811.105469 126.242188 811.332031 125.964844 C 811.425781 126.128906 811.640625 126.367188 811.589844 126.453125 C 811.355469 126.863281 811.046875 127.238281 810.765625 127.625 C 810.726562 127.429688 810.691406 127.234375 810.65625 126.921875 Z M 949.554688 137.117188 C 950.246094 139.011719 950.339844 141.257812 949.828125 143.675781 C 948.898438 148.042969 945.941406 153.074219 942.460938 156.554688 C 939.820312 159.191406 936.851562 160.90625 934.269531 161.28125 C 931.800781 161.632812 929.539062 160.996094 927.679688 159.132812 C 925.609375 157.0625 925.011719 153.722656 926.242188 149.785156 C 928.167969 143.589844 934.71875 135.414062 939.433594 132.117188 C 942.441406 130.011719 945.230469 129.878906 946.808594 130.648438 C 948.285156 131.367188 949.722656 132.886719 949.722656 136.011719 C 949.722656 136.394531 949.664062 136.765625 949.554688 137.117188 Z M 877.945312 152.804688 C 873.351562 156.382812 867.777344 159.574219 863.863281 160.710938 C 860.84375 161.585938 858.421875 161.203125 857.015625 160.265625 C 854.007812 158.257812 853.472656 154.199219 856.898438 149.59375 C 857.21875 149.164062 857.574219 148.71875 857.960938 148.269531 L 858.007812 148.414062 C 858.296875 148.300781 858.578125 148.1875 858.804688 148.015625 C 858.558594 148.007812 858.34375 148.035156 858.136719 148.070312 C 861.238281 144.550781 866.195312 140.617188 870.804688 137.914062 C 874.792969 135.582031 878.605469 134.253906 880.960938 134.324219 C 882.640625 134.378906 883.9375 134.964844 884.871094 135.847656 C 885.40625 136.355469 885.863281 136.980469 886.164062 137.761719 C 886.316406 137.984375 886.453125 138.226562 886.558594 138.488281 C 887.121094 139.878906 887.144531 141.613281 886.308594 143.550781 C 885.285156 145.90625 882.609375 148.972656 879.148438 151.839844 C 878.828125 152.105469 878.5 152.367188 878.167969 152.628906 L 878.125 152.550781 C 878.0625 152.632812 878.003906 152.714844 877.945312 152.804688 Z M 879.089844 137.976562 C 879.144531 137.722656 879.210938 137.449219 879.382812 137.355469 C 879.570312 137.253906 879.867188 137.257812 880.082031 137.328125 C 880.207031 137.363281 880.355469 137.738281 880.328125 137.765625 C 880.140625 137.925781 879.914062 138.078125 879.679688 138.140625 C 879.523438 138.183594 879.328125 138.074219 879.089844 137.976562 Z M 866.636719 149.941406 C 866.929688 149.816406 867.152344 149.710938 867.230469 149.675781 C 867.328125 149.535156 867.472656 149.328125 867.660156 149.066406 C 867.3125 149.355469 866.972656 149.648438 866.636719 149.941406 Z M 864.351562 150.824219 C 864.515625 151.101562 864.554688 151.378906 864.597656 151.652344 C 864.433594 151.652344 864.269531 151.652344 864.105469 151.652344 C 864.148438 151.378906 864.191406 151.101562 864.351562 150.824219 Z M 856.777344 152.796875 C 857.03125 152.773438 857.222656 152.808594 857.417969 152.84375 C 857.28125 153.046875 857.148438 153.25 857.015625 153.453125 C 856.914062 153.253906 856.816406 153.054688 856.777344 152.796875 Z M 874.316406 153.035156 C 874.132812 153.167969 873.890625 153.25 873.644531 153.304688 C 873.628906 153.308594 873.566406 153.101562 873.527344 152.988281 C 873.769531 152.984375 874.011719 152.980469 874.316406 153.035156 Z M 861.90625 156.503906 C 861.523438 156.558594 861.203125 156.550781 860.878906 156.546875 C 860.917969 156.4375 860.972656 156.226562 860.996094 156.230469 C 861.324219 156.285156 861.644531 156.367188 861.90625 156.503906 Z M 892.113281 185.988281 C 893.34375 184.605469 894.871094 183.449219 896.667969 182.730469 C 899.109375 181.75 901.390625 182.378906 902.757812 183.59375 C 904.277344 184.949219 905.261719 187.257812 903.769531 190.246094 C 903.695312 190.390625 903.386719 190.863281 902.949219 191.496094 C 903.542969 192.753906 903.691406 194.707031 901.441406 196.960938 C 900.894531 197.511719 900.34375 198.058594 899.792969 198.609375 C 898.066406 200.339844 896.472656 201.191406 895.121094 201.539062 C 894.542969 201.925781 893.84375 202.152344 893.097656 202.152344 C 889.820312 202.152344 888.550781 200.582031 888.078125 199.644531 C 887.496094 198.488281 887.34375 196.964844 888.382812 195.332031 C 888.390625 194.015625 888.632812 192.511719 889.167969 190.988281 C 889.761719 189.320312 890.6875 187.644531 891.933594 186.195312 C 892.078125 186.523438 892.242188 186.882812 892.480469 186.949219 C 892.8125 187.039062 893.238281 186.765625 893.617188 186.648438 C 893.460938 186.421875 893.34375 186.050781 893.140625 185.996094 C 892.828125 185.90625 892.480469 185.941406 892.113281 185.988281 Z M 894.125 189.847656 C 894.207031 190.121094 894.234375 190.335938 894.257812 190.550781 C 894.121094 190.542969 893.902344 190.585938 893.863281 190.519531 C 893.730469 190.300781 893.664062 190.042969 893.574219 189.800781 C 893.738281 189.796875 893.898438 189.792969 894.125 189.847656 "/>
</g>
</g>
</svg>
