<?xml version="1.0" encoding="UTF-8"?>
<svg xmlns="http://www.w3.org/2000/svg" xmlns:xlink="http://www.w3.org/1999/xlink" width="375pt" height="374.999991pt" viewBox="0 0 375 374.999991" version="1.2">
<g id="surface1">
<path style=" stroke:none;fill-rule:nonzero;fill:rgb(14.898682%,32.939148%,48.629761%);fill-opacity:1;" d="M 351.109375 191.667969 C 347.035156 264.078125 310.25 323.007812 238.507812 344.875 C 177.601562 363.4375 95.722656 335.222656 59.960938 282.003906 C 22.683594 226.546875 20.058594 151.425781 57.433594 94.90625 C 90.964844 44.207031 163.808594 19.6875 222.046875 32.414062 C 297.460938 48.894531 355.164062 112.082031 351.109375 191.667969 Z M 357.085938 166.628906 C 346.871094 97.949219 298.867188 42.878906 230.832031 26.445312 C 168.296875 11.34375 93.90625 31.539062 55.113281 85.171875 C 15.097656 140.496094 17.847656 217.855469 51.378906 274.835938 C 85.394531 332.636719 165.125 363.488281 230.09375 351.980469 C 269.949219 344.914062 304.574219 320.113281 328.578125 288.058594 C 353.363281 254.960938 360.066406 206.957031 357.085938 166.628906 "/>
<path style=" stroke:none;fill-rule:nonzero;fill:rgb(14.898682%,32.939148%,48.629761%);fill-opacity:1;" d="M 322.5625 194.003906 C 319.800781 218.453125 316.558594 245.078125 302.625 266.066406 C 287.636719 288.648438 260.046875 305.996094 234.195312 312.976562 C 180.710938 327.414062 117.304688 304.449219 80.90625 263.800781 C 50.082031 229.382812 47.949219 163.359375 67.449219 123.214844 C 90.417969 75.933594 160.074219 48.574219 210.039062 56.773438 C 241.734375 61.96875 271.128906 72.339844 290.636719 98.980469 C 310.773438 126.488281 326.476562 159.371094 322.5625 194.003906 Z M 329.824219 173.28125 C 328.09375 148.253906 312.472656 119.785156 298.335938 99.480469 C 280.425781 73.757812 254.59375 61.269531 224.53125 54.601562 C 170.648438 42.640625 104.5625 63.171875 72.21875 108.902344 C 43.839844 149.011719 43.945312 224.980469 76.410156 263.28125 C 113.667969 307.238281 172.738281 333.316406 230.378906 319.976562 C 257.144531 313.78125 288.902344 295.257812 305.351562 272.886719 C 324.042969 247.464844 331.953125 204.164062 329.824219 173.28125 "/>
<path style=" stroke:none;fill-rule:nonzero;fill:rgb(14.898682%,32.939148%,48.629761%);fill-opacity:1;" d="M 292.71875 237.984375 C 279.105469 269.285156 258.234375 284.011719 226.488281 295.0625 C 195.773438 305.753906 167.636719 298.195312 138.824219 285.457031 C 82.773438 260.671875 56.628906 194.179688 82.296875 137.988281 C 87.28125 127.078125 95.597656 111.34375 105.199219 103.878906 C 116.703125 94.945312 136.019531 89.984375 149.578125 85.738281 C 179.121094 76.492188 211.628906 72.875 240.945312 84.996094 C 298.222656 108.683594 315.601562 185.339844 292.71875 237.984375 Z M 307.410156 177.378906 C 301.503906 110.824219 247.433594 64.171875 181.171875 72.714844 C 155.082031 76.078125 120.8125 84.5625 101.472656 103.304688 C 80.667969 123.460938 70.273438 152.550781 68.78125 180.382812 C 65.078125 249.519531 130.90625 302.660156 196.371094 304.460938 C 264.921875 306.347656 313.210938 242.71875 307.410156 177.378906 "/>
<path style=" stroke:none;fill-rule:nonzero;fill:rgb(14.898682%,32.939148%,48.629761%);fill-opacity:1;" d="M 324.898438 115.417969 C 305.59375 76.90625 278.90625 52.015625 236.003906 42.78125 C 260.796875 48.113281 287.28125 62.261719 303.464844 82.574219 C 311.714844 92.925781 318.066406 104.746094 323.980469 116.539062 C 328.03125 124.617188 338.207031 142.378906 336.636719 150.785156 C 339 138.203125 330.207031 126.007812 324.898438 115.417969 "/>
<path style=" stroke:none;fill-rule:nonzero;fill:rgb(14.898682%,32.939148%,48.629761%);fill-opacity:1;" d="M 165.617188 105.871094 C 165.070312 105.871094 165.070312 106.71875 165.617188 106.71875 C 166.167969 106.71875 166.167969 105.863281 165.617188 105.871094 "/>
<path style=" stroke:none;fill-rule:nonzero;fill:rgb(14.898682%,32.939148%,48.629761%);fill-opacity:1;" d="M 183.472656 100.984375 C 181.765625 99.285156 179.730469 103.207031 180.496094 103.964844 C 181.234375 104.695312 185.253906 102.753906 183.472656 100.984375 "/>
<path style=" stroke:none;fill-rule:nonzero;fill:rgb(14.898682%,32.939148%,48.629761%);fill-opacity:1;" d="M 211.035156 103.625 C 211.363281 103.816406 208.71875 103.015625 208.632812 103.105469 C 208.539062 103.195312 209.351562 105.832031 209.15625 105.507812 C 211.414062 106.5 212.039062 105.875 211.035156 103.625 "/>
<path style=" stroke:none;fill-rule:nonzero;fill:rgb(14.898682%,32.939148%,48.629761%);fill-opacity:1;" d="M 217.359375 118.230469 C 216.6875 118.238281 216.6875 119.28125 217.359375 119.28125 C 218.03125 119.28125 218.03125 118.230469 217.359375 118.230469 "/>
<path style=" stroke:none;fill-rule:nonzero;fill:rgb(14.898682%,32.939148%,48.629761%);fill-opacity:1;" d="M 216.613281 122.945312 C 216.023438 124.464844 216.277344 125.605469 217.375 126.371094 C 220.757812 126.363281 216.609375 120.394531 216.613281 122.945312 "/>
<path style=" stroke:none;fill-rule:nonzero;fill:rgb(14.898682%,32.939148%,48.629761%);fill-opacity:1;" d="M 197.792969 119.308594 C 198.039062 119.292969 193.359375 119.296875 194.605469 120.589844 C 196.703125 122.773438 199.574219 119.214844 197.792969 119.308594 "/>
<path style=" stroke:none;fill-rule:nonzero;fill:rgb(14.898682%,32.939148%,48.629761%);fill-opacity:1;" d="M 229.777344 98.746094 C 227.878906 98.667969 226.769531 99.394531 226.4375 100.933594 C 227.289062 102.847656 231.070312 98.554688 229.777344 98.746094 "/>
<path style=" stroke:none;fill-rule:nonzero;fill:rgb(14.898682%,32.939148%,48.629761%);fill-opacity:1;" d="M 242.808594 108.753906 C 242.496094 107.5 241.769531 106.941406 240.636719 107.085938 C 239.375 108.34375 243.214844 109.511719 242.808594 108.753906 "/>
<path style=" stroke:none;fill-rule:nonzero;fill:rgb(14.898682%,32.939148%,48.629761%);fill-opacity:1;" d="M 250.847656 122.917969 C 249.015625 123.246094 249.320312 124.707031 251.78125 127.304688 C 253.503906 126.757812 253.199219 125.296875 250.847656 122.917969 "/>
<path style=" stroke:none;fill-rule:nonzero;fill:rgb(14.898682%,32.939148%,48.629761%);fill-opacity:1;" d="M 261.683594 137.03125 C 260.941406 137.339844 259.121094 135.523438 258.617188 136.632812 C 258.300781 137.335938 262.371094 140.542969 263.242188 139.046875 C 263.601562 137.683594 263.082031 137.011719 261.683594 137.03125 "/>
<path style=" stroke:none;fill-rule:nonzero;fill:rgb(14.898682%,32.939148%,48.629761%);fill-opacity:1;" d="M 266.933594 134.738281 C 266.738281 134.285156 265.589844 131.230469 264.375 131.996094 C 261.21875 134 268.246094 137.714844 266.933594 134.738281 "/>
<path style=" stroke:none;fill-rule:nonzero;fill:rgb(14.898682%,32.939148%,48.629761%);fill-opacity:1;" d="M 273.011719 150.757812 C 272.921875 147.128906 267.863281 156.09375 271.945312 156.085938 C 273.855469 156.082031 273.003906 151.546875 273.011719 150.757812 "/>
<path style=" stroke:none;fill-rule:nonzero;fill:rgb(14.898682%,32.939148%,48.629761%);fill-opacity:1;" d="M 282.277344 165.5625 C 281.792969 164.253906 280.949219 163.769531 279.738281 164.101562 C 277.582031 166.261719 283.949219 167.46875 282.277344 165.5625 "/>
<path style=" stroke:none;fill-rule:nonzero;fill:rgb(14.898682%,32.939148%,48.629761%);fill-opacity:1;" d="M 290.75 175.191406 L 288.542969 172.941406 C 286.167969 176.722656 292.34375 176.484375 290.75 175.191406 "/>
<path style=" stroke:none;fill-rule:nonzero;fill:rgb(14.898682%,32.939148%,48.629761%);fill-opacity:1;" d="M 281.753906 188.320312 C 280.335938 188.941406 279.132812 189.851562 278.152344 191.054688 C 276.921875 195.390625 283.53125 187.167969 281.753906 188.320312 "/>
<path style=" stroke:none;fill-rule:nonzero;fill:rgb(14.898682%,32.939148%,48.629761%);fill-opacity:1;" d="M 269.179688 173.257812 C 267.324219 172.621094 266.050781 173.039062 265.359375 174.503906 C 265.367188 179.339844 273.238281 173.246094 269.179688 173.257812 "/>
<path style=" stroke:none;fill-rule:nonzero;fill:rgb(14.898682%,32.939148%,48.629761%);fill-opacity:1;" d="M 259.421875 161.53125 C 259.328125 161.199219 255.347656 159.453125 254.824219 159.8125 C 251.382812 162.160156 260.613281 165.828125 259.421875 161.53125 "/>
<path style=" stroke:none;fill-rule:nonzero;fill:rgb(14.898682%,32.939148%,48.629761%);fill-opacity:1;" d="M 248.242188 149.425781 C 247.664062 148.578125 247.480469 147.445312 247.035156 146.652344 C 245.664062 144.253906 240.183594 143.0625 241.457031 145.125 C 243.292969 148.101562 247.109375 147.757812 248.242188 149.425781 "/>
<path style=" stroke:none;fill-rule:nonzero;fill:rgb(14.898682%,32.939148%,48.629761%);fill-opacity:1;" d="M 240.84375 136.21875 C 240.980469 136.464844 237.898438 131.769531 237.523438 133.953125 C 236.761719 138.34375 242.011719 138.289062 240.84375 136.21875 "/>
<path style=" stroke:none;fill-rule:nonzero;fill:rgb(14.898682%,32.939148%,48.629761%);fill-opacity:1;" d="M 246.265625 125.175781 C 245.835938 124.351562 242.789062 124.074219 242.789062 125.691406 C 242.789062 125.53125 244.054688 130.855469 243.53125 130.402344 C 246.988281 133.378906 247.574219 123.953125 246.265625 125.175781 "/>
<path style=" stroke:none;fill-rule:nonzero;fill:rgb(14.898682%,32.939148%,48.629761%);fill-opacity:1;" d="M 244.023438 174.023438 C 243.347656 174.027344 243.347656 175.070312 244.023438 175.070312 C 244.699219 175.066406 244.699219 174.023438 244.023438 174.023438 "/>
<path style=" stroke:none;fill-rule:nonzero;fill:rgb(14.898682%,32.939148%,48.629761%);fill-opacity:1;" d="M 235.289062 162.234375 C 234.316406 161.332031 233.359375 161.152344 232.421875 161.699219 C 232.390625 164.027344 233.554688 164.964844 235.921875 164.503906 C 237.167969 163.328125 236.960938 162.570312 235.289062 162.234375 "/>
<path style=" stroke:none;fill-rule:nonzero;fill:rgb(14.898682%,32.939148%,48.629761%);fill-opacity:1;" d="M 264.148438 146.585938 C 264.164062 146.929688 265.5625 149.839844 265.667969 147.703125 C 265.730469 146.433594 264.078125 145.1875 264.148438 146.585938 "/>
<path style=" stroke:none;fill-rule:nonzero;fill:rgb(14.898682%,32.939148%,48.629761%);fill-opacity:1;" d="M 270.585938 177.308594 C 268.816406 177.3125 268.816406 180.058594 270.59375 180.058594 C 272.359375 180.054688 272.359375 177.308594 270.585938 177.308594 "/>
<path style=" stroke:none;fill-rule:nonzero;fill:rgb(14.898682%,32.939148%,48.629761%);fill-opacity:1;" d="M 207.628906 146.226562 C 205.222656 146.234375 205.230469 149.960938 207.636719 149.957031 C 210.035156 149.953125 210.035156 146.222656 207.628906 146.226562 "/>
<path style=" stroke:none;fill-rule:nonzero;fill:rgb(14.898682%,32.939148%,48.629761%);fill-opacity:1;" d="M 201.265625 136.289062 C 200.417969 135.597656 199.941406 132.644531 198.128906 134.460938 C 195.074219 137.523438 203.230469 137.878906 201.265625 136.289062 "/>
<path style=" stroke:none;fill-rule:nonzero;fill:rgb(14.898682%,32.939148%,48.629761%);fill-opacity:1;" d="M 169.832031 116.535156 C 168.25 115.972656 167.066406 116.277344 166.28125 117.460938 C 166.285156 121.257812 172.914062 116.53125 169.832031 116.535156 "/>
<path style=" stroke:none;fill-rule:nonzero;fill:rgb(14.898682%,32.939148%,48.629761%);fill-opacity:1;" d="M 161.421875 105.714844 C 160.667969 105.714844 160.667969 106.886719 161.425781 106.886719 C 162.183594 106.886719 162.183594 105.707031 161.421875 105.714844 "/>
<path style=" stroke:none;fill-rule:nonzero;fill:rgb(14.898682%,32.939148%,48.629761%);fill-opacity:1;" d="M 189.34375 88.238281 C 183.300781 88.25 189.355469 93.566406 189.355469 93.542969 C 189.355469 93.582031 195.382812 88.230469 189.34375 88.238281 "/>
<path style=" stroke:none;fill-rule:nonzero;fill:rgb(14.898682%,32.939148%,48.629761%);fill-opacity:1;" d="M 199.132812 90.414062 C 198.542969 90.414062 198.542969 91.332031 199.136719 91.328125 C 199.730469 91.328125 199.722656 90.414062 199.132812 90.414062 "/>
<path style=" stroke:none;fill-rule:nonzero;fill:rgb(14.898682%,32.939148%,48.629761%);fill-opacity:1;" d="M 281.820312 206.144531 C 279.464844 206.152344 279.464844 209.8125 281.832031 209.808594 C 284.191406 209.800781 284.1875 206.140625 281.820312 206.144531 "/>
<path style=" stroke:none;fill-rule:nonzero;fill:rgb(14.898682%,32.939148%,48.629761%);fill-opacity:1;" d="M 260.097656 201.789062 C 259.617188 201.464844 257.679688 200.714844 258.613281 202.773438 C 259.253906 204.195312 261.003906 202.566406 260.097656 201.789062 "/>
<path style=" stroke:none;fill-rule:nonzero;fill:rgb(14.898682%,32.939148%,48.629761%);fill-opacity:1;" d="M 263.671875 218.492188 C 262.792969 218.5 262.792969 219.867188 263.675781 219.867188 C 264.5625 219.863281 264.5625 218.492188 263.671875 218.492188 "/>
<path style=" stroke:none;fill-rule:nonzero;fill:rgb(14.898682%,32.939148%,48.629761%);fill-opacity:1;" d="M 269.277344 224.164062 C 268.519531 224.167969 268.519531 225.347656 269.28125 225.34375 C 270.039062 225.34375 270.039062 224.164062 269.277344 224.164062 "/>
<path style=" stroke:none;fill-rule:nonzero;fill:rgb(14.898682%,32.939148%,48.629761%);fill-opacity:1;" d="M 263.179688 232.464844 C 262.292969 230.496094 258.78125 233.914062 261.886719 234.453125 C 263.15625 234.3125 263.589844 233.648438 263.179688 232.464844 "/>
<path style=" stroke:none;fill-rule:nonzero;fill:rgb(14.898682%,32.939148%,48.629761%);fill-opacity:1;" d="M 260.042969 242.917969 C 259.773438 243.902344 260.066406 244.632812 260.933594 245.101562 C 264.082031 245.097656 259.90625 240.074219 260.042969 242.917969 "/>
<path style=" stroke:none;fill-rule:nonzero;fill:rgb(14.898682%,32.939148%,48.629761%);fill-opacity:1;" d="M 268.617188 241.71875 C 268.769531 241.601562 267.230469 244.195312 267.628906 244.589844 C 269.882812 246.835938 271.867188 239.261719 268.617188 241.71875 "/>
<path style=" stroke:none;fill-rule:nonzero;fill:rgb(14.898682%,32.939148%,48.629761%);fill-opacity:1;" d="M 277.675781 230.15625 C 277.464844 230.15625 277.464844 230.484375 277.675781 230.484375 C 277.882812 230.484375 277.882812 230.15625 277.675781 230.15625 "/>
<path style=" stroke:none;fill-rule:nonzero;fill:rgb(14.898682%,32.939148%,48.629761%);fill-opacity:1;" d="M 277.828125 213.382812 C 277.417969 213.023438 276.417969 215.535156 277.644531 215.535156 C 278.5 215.039062 278.558594 214.324219 277.828125 213.382812 "/>
<path style=" stroke:none;fill-rule:nonzero;fill:rgb(14.898682%,32.939148%,48.629761%);fill-opacity:1;" d="M 265.035156 197.222656 C 265.691406 197.210938 260.472656 197.882812 262.039062 198.582031 C 264.894531 199.851562 266.535156 197.191406 265.035156 197.222656 "/>
<path style=" stroke:none;fill-rule:nonzero;fill:rgb(14.898682%,32.939148%,48.629761%);fill-opacity:1;" d="M 258.023438 184.09375 C 257.761719 184.09375 257.769531 184.488281 258.023438 184.488281 C 258.269531 184.488281 258.269531 184.09375 258.023438 184.09375 "/>
<path style=" stroke:none;fill-rule:nonzero;fill:rgb(14.898682%,32.939148%,48.629761%);fill-opacity:1;" d="M 244.109375 220.644531 C 239.945312 220.65625 239.308594 226.128906 241.625 228.144531 C 246.636719 232.527344 251.675781 220.628906 244.109375 220.644531 "/>
<path style=" stroke:none;fill-rule:nonzero;fill:rgb(14.898682%,32.939148%,48.629761%);fill-opacity:1;" d="M 244.074219 200.449219 C 242.769531 200.09375 242.261719 200.449219 242.554688 201.515625 C 245.34375 202.371094 244.222656 200.433594 244.074219 200.449219 "/>
<path style=" stroke:none;fill-rule:nonzero;fill:rgb(14.898682%,32.939148%,48.629761%);fill-opacity:1;" d="M 242.65625 190.242188 C 239.488281 190.25 239.5 195.160156 242.664062 195.152344 C 245.824219 195.144531 245.820312 190.238281 242.65625 190.242188 "/>
<path style=" stroke:none;fill-rule:nonzero;fill:rgb(14.898682%,32.939148%,48.629761%);fill-opacity:1;" d="M 237.214844 268.699219 C 236.203125 268.707031 236.207031 270.273438 237.214844 270.273438 C 238.230469 270.269531 238.230469 268.699219 237.214844 268.699219 "/>
<path style=" stroke:none;fill-rule:nonzero;fill:rgb(14.898682%,32.939148%,48.629761%);fill-opacity:1;" d="M 253.964844 256.519531 C 251.6875 256.523438 251.691406 260.058594 253.972656 260.050781 C 256.25 260.050781 256.246094 256.519531 253.964844 256.519531 "/>
</g>
</svg>
